<?xml version="1.0" encoding="UTF-8" standalone="no"?>
<!-- Created with Inkscape (http://www.inkscape.org/) -->

<svg
   xmlns:dc="http://purl.org/dc/elements/1.1/"
   xmlns:cc="http://creativecommons.org/ns#"
   xmlns:rdf="http://www.w3.org/1999/02/22-rdf-syntax-ns#"
   xmlns:svg="http://www.w3.org/2000/svg"
   xmlns="http://www.w3.org/2000/svg"
   xmlns:sodipodi="http://sodipodi.sourceforge.net/DTD/sodipodi-0.dtd"
   xmlns:inkscape="http://www.inkscape.org/namespaces/inkscape"
   width="1024"
   height="1024"
   viewBox="0 0 1024 1024"
   version="1.1"
   id="svg1162"
   inkscape:version="0.92.2 (5c3e80d, 2017-08-06)"
   sodipodi:docname="sakura's-magic-circle-sakura-card-arc.svg"
   inkscape:export-filename="bitmap.png"
   inkscape:export-xdpi="384"
   inkscape:export-ydpi="384">
  <defs
     id="defs1156">
    <clipPath
       clipPathUnits="userSpaceOnUse"
       id="clipPath1304">
      <rect
         style="color:#000000;clip-rule:nonzero;display:inline;overflow:visible;visibility:visible;opacity:1;isolation:auto;mix-blend-mode:normal;color-interpolation:sRGB;color-interpolation-filters:linearRGB;solid-color:#000000;solid-opacity:1;fill:none;fill-opacity:1;fill-rule:evenodd;stroke:#001600;stroke-width:3;stroke-linecap:round;stroke-linejoin:round;stroke-miterlimit:4;stroke-dasharray:none;stroke-dashoffset:0;stroke-opacity:1;marker:none;color-rendering:auto;image-rendering:auto;shape-rendering:auto;text-rendering:auto;enable-background:accumulate"
         id="rect1306"
         width="1021.4328"
         height="1068.2159"
         x="-25.990656"
         y="13.03947" />
    </clipPath>
  </defs>
  <sodipodi:namedview
     id="base"
     pagecolor="#ffffff"
     bordercolor="#666666"
     borderopacity="1.0"
     inkscape:pageopacity="0.0"
     inkscape:pageshadow="2"
     inkscape:zoom="0.5546875"
     inkscape:cx="512"
     inkscape:cy="512"
     inkscape:document-units="px"
     inkscape:current-layer="layer8"
     showgrid="false"
     units="px"
     inkscape:window-width="1440"
     inkscape:window-height="771"
     inkscape:window-x="0"
     inkscape:window-y="23"
     inkscape:window-maximized="0"
     objecttolerance="1"
     showguides="false"
     inkscape:lockguides="false" />
  <metadata
     id="metadata1159">
    <rdf:RDF>
      <cc:Work
         rdf:about="">
        <dc:format>image/svg+xml</dc:format>
        <dc:type
           rdf:resource="http://purl.org/dc/dcmitype/StillImage" />
        <dc:title></dc:title>
      </cc:Work>
    </rdf:RDF>
  </metadata>
  <g
     inkscape:groupmode="layer"
     id="layer2"
     inkscape:label="frame"
     style="display:inline">
    <path
       id="path4569-8-8"
       style="color:#000000;clip-rule:nonzero;display:inline;overflow:visible;visibility:visible;opacity:1;isolation:auto;mix-blend-mode:normal;color-interpolation:sRGB;color-interpolation-filters:linearRGB;solid-color:#000000;solid-opacity:1;fill:none;fill-opacity:1;fill-rule:evenodd;stroke:#000000;stroke-width:3;stroke-linecap:round;stroke-linejoin:round;stroke-miterlimit:4;stroke-dasharray:none;stroke-dashoffset:0;stroke-opacity:1;marker:none;color-rendering:auto;image-rendering:auto;shape-rendering:auto;text-rendering:auto;enable-background:accumulate"
       d="m 540.20994,73.224578 c 0,15.57913 -12.62937,28.208502 -28.2085,28.208502 -15.57913,0 -28.2085,-12.629372 -28.2085,-28.208502 0,-15.57913 12.62937,-28.2085 28.2085,-28.2085 15.57913,0 28.2085,12.62937 28.2085,28.2085 z M 950.77617,540.20775 c -15.57913,0 -28.2085,-12.62937 -28.2085,-28.2085 0,-15.57912 12.62938,-28.20849 28.2085,-28.20849 15.57913,-2e-5 28.20853,12.62936 28.20853,28.20849 0,15.57914 -12.62939,28.20852 -28.20853,28.2085 z M 483.79294,950.774 c 0,-15.57913 12.62937,-28.2085 28.2085,-28.2085 15.57913,0 28.2085,12.62937 28.2085,28.2085 0,15.57912 -12.62937,28.2085 -28.2085,28.2085 -15.57913,0 -28.2085,-12.62938 -28.2085,-28.2085 z M 73.226712,483.79076 c 15.579121,0 28.208498,12.62937 28.208508,28.20849 0,15.57913 -12.629384,28.2085 -28.208508,28.2085 -15.579125,0 -28.208501,-12.62937 -28.2085,-28.2085 5e-6,-15.57912 12.629379,-28.20849 28.2085,-28.20849 z m 438.856028,296.53629 0.11145,-165.34652 m -255.36255,-19.9862 10.28398,-3.3338 m 28.72696,-9.31257 118.2774,-38.34254 M 354.21666,294.96526 451.31477,428.79893 M 669.65491,294.86978 572.37649,428.57242 m 189.58189,164.55345 -33.68397,-10.96969 m -32.16571,-10.47527 -86.10665,-28.0419 m -98.14882,238.76873 44.00368,-135.77711 m 70.63282,-217.94344 v 0 m 0,0 43.89746,-135.44932 m 0.67626,0.0835 -115.40773,83.98142 m 0,0 -9.7e-4,9e-4 M 370.40886,512.1057 v 0 m 0,0 -62.68271,45.61379 m -18.03851,13.1265 -34.40768,25.03824 m -0.49799,-0.46506 6.13325,-0.005 m 25.81425,-0.0192 110.7833,-0.0834 m 0,0 v 0 m 229.1016,-0.17248 v 0 m 0,0 134.28856,-0.10107 M 353.17931,293.14716 397.38784,428.85935 m 0,0 v 0 m 70.96102,217.83756 44.1006,135.3809 M 762.99429,591.25069 737.35784,572.65421 m -19.68608,-14.28017 -64.0766,-46.48073 m 0,0 -9.7e-4,-9e-4 m -185.44748,-134.52215 -9.7e-4,-8.9e-4 m -2.8e-4,0 -115.25459,-83.6049 m 383.86652,-6.52107 -22.88898,22.88898 m 22.88935,426.62317 -22.88819,-22.88819 m 43.33905,-316.21003 -17.37081,8.10014 m 17.53744,16.93309 v 0 m 0,0 -9.14484,3.32845 m 20.48306,17.19451 -13.8883,3.72137 m -8.48268,-70.23243 -16.63126,9.60207 m 3.83778,-29.43448 -15.62126,10.93813 m 1.40007,-29.77634 -14.75077,12.37737 m -37.51961,-59.85277 -8.10859,11.58026 m 26.85652,2.7312 -12.21378,14.55583 m 29.67908,1.30639 -13.50992,13.50992 m -42.60123,-56.3413 -9.46325,16.39083 m 9.60208,452.05073 -9.60207,-16.63126 m 29.43447,3.83778 -8.82276,-12.60021 m 27.66098,-1.62098 -12.37737,-14.75077 m 59.85277,-37.51961 -15.51658,-10.86482 m 1.20523,29.61285 -14.55595,-12.21388 m -1.30817,29.67729 -13.50813,-13.50813 m 56.34128,-42.60125 -16.39082,-9.46324 m 27.30601,-11.44206 -17.17945,-8.0109 m 17.59071,-16.91368 v 0 m 0,0 -9.1981,-3.34785 m 20.53806,-17.17977 -13.9433,-3.7361 m 93.85677,-259.44695 -0.63457,0.36636 m 0,0 v 0 m 0,0 -57.58619,33.24741 m 0,0 v 0 m -6.88748,3.97649 v 0 m 0,0 -16.86055,9.73444 m 81.3114,341.06083 v 0 m 0,0 -57.49474,-33.1946 m 0,0 v 0 m -6.93823,-4.00578 v 0 m 0,0 -16.79088,-9.69423 m 136.2732,-329.46842 -0.32585,0.15193 m 0,0 -24.09504,11.2357 m 50.1461,59.29183 -0.35838,0.0961 m 0,-5e-5 -25.38785,6.80266 m -17.36088,-110.96841 -0.2162,0.12482 m 0,0 -23.15843,13.37053 m 3.14876,-45.24363 -0.0569,0.0398 m 2e-5,2e-5 -22.0368,15.43032 m 22.09366,479.52707 -0.3088,-0.21625 m 0,0 -21.54838,-15.08833 m 42.08304,-16.44372 -0.3449,-0.19912 m 0,0 -22.91069,-13.22747 m 40.63748,-19.96368 -0.31662,-0.14764 m 0,0 -24.11582,-11.24538 m 50.15766,-59.28644 -0.036,-0.01 m 10e-6,8e-5 -26.01172,-6.96982 m -308.41847,-411.96587 -8.38416,31.2901 m -156.19427,-30.97522 8.37545,31.25765 m -150.88432,50.93658 22.88803,22.88803 m -105.39711,119.53646 31.29009,8.38416 m -30.97522,156.19428 31.25767,-8.37545 m 50.9362,150.88467 22.8882,-22.88819 m 119.53618,105.39869 8.38417,-31.29009 m 156.19522,30.97523 -8.37594,-31.25945 m 40.38186,-520.70977 -8.01163,17.18101 m -13.75349,-26.2733 -6.50804,17.8807 m -62.40659,-33.21977 -1.66366,19.01573 m 25.08192,-16.07167 -3.33861,18.93423 m 26.36564,-13.744 -4.95458,18.49072 m -88.62502,-26.47527 1.65057,18.86601 m -25.03046,-15.77985 3.28716,18.6424 m -70.68863,2.36325 8.10015,17.37081 m 13.74878,-26.28622 6.51275,17.89363 m 16.00796,-24.91142 4.90793,18.31666 m -70.23244,8.48268 9.60207,16.63126 m -29.43447,-3.83779 8.82276,12.60022 m -27.66088,1.62109 12.37727,14.75065 m -59.85365,37.519 15.51746,10.86544 m -1.20512,-29.61276 14.55584,12.21379 m 1.30638,-29.67909 13.50992,13.50992 m -56.34271,42.60042 16.39224,9.46407 m -27.30757,11.44133 17.18101,8.01163 m -41.6124,82.66812 19.01575,1.66366 m -16.072,-25.08198 18.93457,3.33867 m -13.74577,-26.3661 18.49248,4.95504 m -27.55516,65.06441 h 18.98928 m -17.90935,23.5606 18.86597,-1.65056 m -15.77982,25.03046 18.64238,-3.28716 m 2.36325,70.68863 17.37081,-8.10015 m -33.30401,-36.26948 18.31665,-4.90793 m 8.48268,70.23243 16.63126,-9.60207 m -3.83778,29.43447 15.62126,-10.93812 m -1.39996,29.77624 14.75066,-12.37727 m 37.51899,59.85365 8.1101,-11.58242 m -26.85751,-2.72981 12.21388,-14.55595 m -29.67729,-1.30817 13.50813,-13.50813 m 42.60124,56.34129 9.46324,-16.39082 m 11.44198,27.30618 8.01099,-17.17962 m 13.75348,26.27331 6.50804,-17.8807 m 62.40659,33.21979 1.66367,-19.01575 m -25.08199,16.072 3.33868,-18.93456 m -26.36623,13.74624 4.95517,-18.49296 m 65.0644,27.55516 -2e-5,-0.42644 m 0,0 2e-5,-1.25471 m 0,0 v -17.30813 m 23.5606,17.90936 -1.65055,-18.86598 m 25.03013,15.77801 -3.28683,-18.64056 m 70.6887,-2.36309 -8.10022,-17.37098 m -13.74879,26.28623 -6.51275,-17.89363 m -16.00748,24.91319 -4.9084,-18.31843 M 706.45113,175.20264 659.10988,257.20011 M 512.00149,122.74932 v 94.76827 m -194.38254,-42.19871 47.32471,81.96879 m -189.73804,60.26246 81.99668,47.34079 m -134.45078,147.1084 h 94.76827 m -42.19872,194.38254 81.96879,-47.32471 m 60.26246,189.73804 47.3408,-81.99668 m 147.10839,134.45078 v -94.76826 m 194.38173,42.19729 -47.32389,-81.96737 m 183.4908,-532.07491 -20.59825,17.28398 m -62.4518,-93.38534 -0.21623,0.3088 m 0,0 -15.08834,21.54837 m 45.16922,1.0588 -0.18594,0.2216 m 0,0 -16.86268,20.09616 m 44.80239,5.11387 -0.091,0.091 m 2e-5,-3e-5 -18.81685,18.81686 m -70.45887,-87.48133 -0.19914,0.3449 m 0,0 -13.22663,22.90923 m -19.96449,-40.636 -0.14656,0.31431 m 0,0 -11.24574,24.11655 m -23.38585,-38.83645 -0.0773,0.21244 m 10e-6,0 -9.15422,25.15105 m -100.74258,-49.744172 -0.0136,0.15536 m 10e-6,0 -2.31449,26.454762 m 39.6496,-21.696642 -4.66609,26.462732 m 41.41738,-18.315162 -0.01,0.036 m 5e-5,-1e-5 -6.96923,26.009502 m -104.7017,-19.81463 v 5.55141 m 0,815.58206 v -5.55331 m -37.60776,-834.872062 0.009,0.1005 m 7e-5,0 2.32377,26.560962 m -39.65412,-21.747992 0.0468,0.26546 m 3e-5,0 4.56479,25.888262 m -112.04233,7.71906 0.15195,0.32584 m 0,0 11.23499,24.0935 m 23.3912,-38.82491 0.13657,0.37524 m 0,0 9.03982,24.83669 m 26.72493,-36.531572 0.0961,0.35839 m -3e-5,0 6.80216,25.385982 m -110.96793,17.36273 0.12483,0.21621 m 0,0 13.36972,23.15701 m -45.24282,-3.14733 0.0398,0.0569 m 3e-5,-2e-5 15.43032,22.0368 m -45.33481,0.82232 17.28383,20.59809 m -93.38519,62.45196 0.30882,0.21623 m 0,0 21.54621,15.0868 m 1.06094,-45.16768 0.22159,0.18594 m 0,0 20.09615,16.86268 m 5.1139,-44.80238 0.0909,0.091 m 4e-5,-3e-5 18.81496,18.81496 m -87.47941,70.46076 0.34488,0.19913 m 0,0 22.90843,13.2262 m -40.63518,19.96493 0.31432,0.14656 m 0,0 24.11427,11.24467 m -38.83418,23.38691 0.21242,0.0774 m 0,-10e-6 25.15106,9.15422 m -36.683127,26.66977 0.03596,0.01 m 3e-6,-4e-5 6.881964,1.84401 m 0,0 v 0 m -6.561784,221.41207 6.414024,-1.71863 m 0,0 v 0 m 18.95506,72.49351 0.32584,-0.15195 m 0,0 24.09352,-11.23499 m -38.82493,-23.3912 0.37355,-0.13596 m 0,0 24.83837,-9.04043 m -36.531576,-26.72493 0.356142,-0.0954 m 42.750974,104.16512 0.21621,-0.12483 m 0,0 23.15845,-13.37054 m -3.14878,45.24365 0.0569,-0.0398 m -1e-5,-3e-5 22.03678,-15.43032 m 0.82232,45.33481 20.59807,-17.28383 m 62.45199,93.38519 0.21624,-0.30882 m 0,0 15.08833,-21.54837 m -45.16923,-1.05878 0.18422,-0.21954 m 0,0 16.86454,-20.09837 m -44.80252,-5.11372 0.0909,-0.0909 m 5e-5,-5e-5 18.81509,-18.81509 m 70.46064,87.47955 0.19912,-0.34489 m 0,0 13.22747,-22.91067 m 19.96368,40.63743 0.14656,-0.31433 m 0,0 11.24478,-24.11448 m 23.3868,38.83439 0.0779,-0.21409 m -1e-5,0 9.15424,-25.15106 m 100.74198,49.74584 0.0138,-0.15727 m -1e-5,0 2.31449,-26.45479 m -39.64979,21.69857 4.66608,-26.4627 m -41.41736,18.31514 0.009,-0.0342 m 4.2e-4,0 6.9697,-26.01126 m 142.30948,39.10649 -0.009,-0.10051 m -4e-5,0 -2.32394,-26.5628 m 39.65426,21.74984 -0.0465,-0.26361 m 0,0 -4.56543,-25.89191 m 112.04265,-7.71725 -0.1512,-0.3243 m 0,0 -11.23581,-24.09529 m -23.39113,38.82515 -0.13596,-0.37356 m 0,0 -9.04102,-24.84004 m -26.72434,36.53324 -0.0949,-0.35437 m -4e-5,0 -6.80323,-25.39001 m 110.96791,-17.36271 -0.12482,-0.21622 m 0,0 -13.37184,-23.16069 m 45.24495,3.15102 -0.0398,-0.0569 m -2e-5,10e-6 -15.43184,-22.03895 m 45.33631,-0.82016 -17.28398,-20.59825 m 70.46937,-32.58715 -0.21952,-0.18422 m 0,0 -20.09835,-16.86454 m -5.11376,44.80252 -0.091,-0.0909 m 3e-5,-4e-5 -18.81697,-18.817 M 204.61834,594.36224 250.39042,423.53852 m 6.19781,-23.13051 8.32372,-31.06452 m 5.30016,-19.78048 46.91622,-175.09371 101.09004,27.08696 m 11.42036,3.06009 225.0195,60.29381 m 19.78046,5.30016 173.82719,46.57686 m 0,0 1.26608,0.33924 -4.13845,15.4449 m 0,0 -20.9206,78.07677 m -50.10337,186.98774 -15.27867,57.02067 m -5.30013,19.78038 -46.91598,175.09285 -101.09002,-27.087 m -11.42038,-3.06008 -225.01951,-60.2938 m -19.78046,-5.30016 -175.09327,-46.9161 16.14371,-60.24914 m 10.73309,-40.05643 0.21026,-0.78471 m -5.30033,-19.77945 44.43023,-165.81589 m 6.84738,-25.55479 2.89579,-10.80723 m 5.30087,-19.78306 54.15607,-202.1132 116.68912,31.26673 m 11.42165,3.06041 202.17869,54.17363 m 19.78044,5.30018 190.14684,50.94969 m 0,0 0.36414,0.0976 m 0,0 0.14966,0.0401 m 0,2e-5 11.45336,3.06891 -6.48825,24.21453 m -68.77187,256.66013 -13.24116,49.4166 m -5.29945,19.77781 -54.15651,202.11486 -116.69042,-31.26708 m -11.41908,-3.05975 -202.17998,-54.17397 m -19.78046,-5.30015 -202.11398,-54.15628 v 0 l 17.99415,-67.15508 m 11.34133,-42.32643 1.93135,-7.20791 m 93.78336,139.59578 -30.40346,-113.46725 m -6.18971,-23.10032 -23.70042,-88.45118 m -5.30017,-19.78049 -20.04509,-74.8093 m -10.73305,-40.05631 -16.13807,-60.2281 101.09002,-27.08702 m 11.42037,-3.06006 225.01951,-60.29379 m 19.78046,-5.30016 175.09327,-46.91609 27.08694,101.0898 m 3.06006,11.42036 37.38413,139.51945 m 50.09139,186.94374 20.83217,77.74655 m 0,0 4.20245,15.68375 -1.2852,0.34437 m 0,0 -99.80483,26.74262 m -11.42037,3.06007 -225.01951,60.2938 m -19.78046,5.30016 -175.09328,46.9161 -27.08706,-101.09028 M 275.56127,733.9601 247.50501,629.25274 m -6.82037,-25.45396 -19.29678,-72.01659 m -5.30085,-19.78307 -24.82693,-92.65537 m -11.33629,-42.30762 -17.99285,-67.15021 116.68911,-31.26676 m 11.42164,-3.06045 202.1787,-54.1736 m 19.78045,-5.30014 202.11402,-54.15628 31.26738,116.69141 m 3.06006,11.42033 38.40509,143.32977 m 68.74856,256.57304 6.47615,24.16942 -11.43256,3.06335 m 0,0 -0.17051,0.0457 m 0,-2e-5 -0.38324,0.10269 m 0,0 -104.7041,28.05539 m -11.41908,3.05973 -202.17999,54.17396 m -19.78045,5.30015 -202.11398,54.15628 v 0 L 278.62135,745.38048 M 204.6185,429.63577 217.67165,416.58263 m 24.69427,-24.69427 126.97775,-126.97775 m 14.48031,-14.48031 128.1775,-128.17749 74.00306,74.00301 m 8.36028,8.3603 164.72571,164.72572 m 14.48029,14.4803 24.67524,24.67528 m -0.008,207.01116 L 654.6579,759.08874 M 640.17833,773.56899 512.00147,901.74585 437.99844,827.7428 M 429.63815,819.38251 264.91244,654.6568 m -14.4803,-14.4803 -8.1101,-8.11011 m -24.63168,-24.63166 -95.4354,-95.43541 74.00323,-74.00322 m 5.2995,-19.77968 0.91545,-0.91545 m 29.93295,-29.93296 117.15609,-117.15608 m 14.48222,-14.48221 147.95713,-147.95713 85.42237,85.42235 m 8.36124,8.36121 148.00507,148.00509 m 14.48028,14.48031 12.62858,12.62854 m 0.005,270.65327 -106.46587,106.46592 m -14.47837,14.47837 -147.95834,147.95834 -85.42332,-85.4233 m -8.35934,-8.35935 -148.00602,-148.00603 m -14.4803,-14.4803 -23.32956,-23.32957 m -29.94427,-29.94426 -82.59547,-82.59547 m 0.0152,-24.19197 73.31898,-73.31902 m 471.2626,-114.71443 c 39.07749,29.76808 68.58546,70.32495 84.88332,116.6668 m 3.62952,11.14297 c 1.5256,5.08282 2.89,10.21265 4.09116,15.38177 m -0.0156,113.9581 c -1.17177,5.0364 -2.49853,10.03547 -3.97839,14.99011 m -3.61337,11.14456 c -16.23525,46.36529 -45.68924,86.96321 -84.72779,116.78461 m -9.48551,6.90182 c -40.39442,27.97497 -88.09635,43.5094 -137.21787,44.68586 m -11.69817,0.008 c -49.12188,-1.10814 -96.84423,-16.5755 -137.27689,-44.493 m -9.49522,-6.88849 C 323.23674,684.48255 295.12979,647.45883 278.24633,605.04172 m -7.21258,-20.70349 c -7.04488,-23.46707 -10.62399,-47.83738 -10.62399,-72.33908 0,-24.38461 3.54498,-48.6397 10.52374,-72.00434 m 7.35238,-21.13755 c 16.84443,-42.26678 44.83558,-79.17453 80.99338,-106.7939 m 9.48383,-6.90029 C 409.15183,277.193 456.84582,261.65972 505.9598,260.47996 m 11.7174,-0.009 c 49.13902,1.10882 96.87708,16.58686 137.3181,44.52245 m 16.1998,-11.86901 c 44.50417,32.36921 78.08346,77.53595 96.2606,129.478 m -0.14506,179.20643 c -38.1121,108.34451 -140.45679,180.83512 -255.30914,180.83515 -108.23156,0 -206.05611,-64.48092 -248.72493,-163.94672 m -7.78894,-20.38932 c -0.31182,-0.92675 -0.61861,-1.85518 -0.92037,-2.78526 m 0,0 c -8.75256,-26.97698 -13.21044,-55.16206 -13.21044,-83.52339 0,-29.33387 4.76882,-58.47265 14.11987,-86.27614 m 7.79411,-20.40838 c 19.23875,-44.85437 50.24865,-83.67165 89.74634,-112.34179 m 0,0 c 46.2208,-33.55023 101.87061,-51.61839 158.98436,-51.61839 57.20213,0 112.93341,18.12404 159.1936,51.77042 M 774.23181,597.87279 C 737.1022,711.25483 631.30823,787.93226 512.0015,787.93226 c -109.90387,0 -209.3285,-65.22122 -253.10212,-166.03159 m -8.30803,-21.56268 c -9.61732,-28.45937 -14.5228,-58.29823 -14.5228,-88.33867 0,-30.04645 4.90744,-59.8912 14.52852,-88.35563 m 8.36296,-21.6853 C 302.76721,301.22285 402.15289,236.06637 512.0015,236.06637 c 119.30173,1e-5 225.09246,76.67112 262.22608,190.0466 m 128.22295,-21.75223 c 1.04119,3.77686 2.02755,7.56863 2.95872,11.37411 m -0.0867,192.88237 c -0.81279,3.3088 -1.6673,6.6072 -2.56334,9.89443 m -9.87388,31.19741 C 834.8846,810.13022 682.5859,917.01349 512.0015,917.01349 c -175.92755,0 -331.73566,-113.57217 -385.57914,-281.05764 m -0.0743,-247.68164 c 53.77032,-167.60312 209.63628,-281.28913 385.65348,-281.28913 170.62054,0 322.94336,106.92788 380.91737,267.39714 m 25.66444,-7.3122 c 5.98978,16.80363 10.93209,33.96244 14.79849,51.37767 m 4.29355,22.03215 c 0.91537,5.44815 1.72606,10.91336 2.43161,16.39262 m -0.0211,110.41716 c -0.68353,5.29226 -1.46516,10.57139 -2.34445,15.83468 m -4.39715,22.59541 c -3.74705,16.84572 -8.501,33.45156 -14.23623,49.7281 m -5.9802,15.95938 c -0.40429,1.01734 -0.81246,2.03313 -1.22448,3.04737 m 0,0 C 849.47362,828.13241 704.50263,932.44059 538.95175,942.79728 m -53.87229,0.002 C 296.75872,931.03027 137.90812,798.30434 92.84926,615.07524 m 823.63137,62.78721 C 853.04232,832.56511 706.91911,937.53239 540.05938,948.26379 m -56.12106,-3.4e-4 C 290.53348,935.82247 128.40518,797.53044 85.621188,608.50732 M 92.851981,408.9122 C 137.91531,225.68578 296.76727,92.964508 485.08668,81.199008 m 53.83875,5.7e-4 C 704.51606,91.548588 849.51908,195.89405 911.93432,349.6201 M 85.57596,415.69129 C 128.28785,226.57476 290.45657,88.181898 483.93641,75.735238 m 56.13017,0 C 706.96129,86.471658 853.10585,191.48267 916.52041,346.23314 m 0,0 c 0.16595,0.40497 0.33129,0.81019 0.49602,1.21566 m 0,0 c 0.37293,0.9179 0.74273,1.83706 1.10941,2.75747 m 0,0 c 8.45683,21.22789 15.2363,43.08615 20.27607,65.37386 m 3.58696,17.52162 c 1.11321,6.06693 2.09789,12.15675 2.95338,18.26534 m -0.009,121.32473 c -0.85019,6.0646 -1.82772,12.11066 -2.93194,18.13418 m -3.63502,17.74863 c -5.01384,22.1353 -11.74383,43.84656 -20.12896,64.93684 m 0,0 c -0.41315,1.03916 -0.83028,2.07672 -1.25138,3.11267 m 0,0 c -0.1679,0.41303 -0.33643,0.8258 -0.50559,1.23831 m 57.71734,-232.55466 0.005,0.0306 m -4.4e-4,-1e-5 0.003,0.0228 m 3.8e-4,2e-5 c 2.7932,19.37369 4.36554,38.90382 4.7077,58.47483 m 0,0 c 0.0466,2.70313 0.0708,5.40662 0.0708,8.11015 m 4.9e-4,0 c 2.9e-4,2.81988 -0.0252,5.6397 -0.0757,8.45912 m 9e-5,0 c -0.35138,19.51513 -1.92586,38.98905 -4.71425,58.30715 m 0,0 -0.008,0.0568 m -4.3e-4,3e-5 -0.012,0.0831 m 2e-5,4e-5 C 953.69013,720.46717 869.41158,844.87426 745.49312,916.41862 v 0 C 638.23445,978.34445 510.76887,995.12561 391.13736,963.07044 271.50585,931.01527 169.508,852.74957 107.58217,745.4909 45.656344,638.23222 28.875182,510.76664 60.930348,391.13513 92.985514,271.50362 171.25122,169.50577 278.5099,107.57994 385.76857,45.654118 513.23415,28.872928 632.86566,60.928128 752.49716,92.983288 854.49501,171.249 916.42084,278.50767 c 29.68809,51.42129 49.29741,108.03256 57.77713,166.80012"
       inkscape:connector-curvature="0"
       sodipodi:nodetypes="ssssscscscssssssssssccccccccccccccccccccccccccccccccccccccccccccccccccccccccccccccccccccccccccccccccccccccccccccccccccccccccccccccccccccccccccccccccccccccccccccccccccccccccccccccccccccccccccccccccccccccccccccccccccccccccccccccccccccccccccccccccccccccccccccccccccccccccccccccccccccccccccccccccccccccccccccccccccccccccccccccccccccccccccccccccccccccccccccccccccccccccccccccccccccccccccccccccccccccccccccccccccccccccccccccccccccccccccccccccccccccccccccccccccccccccccccccccccccccccccccccccccccccccccccccccccccccccccccccccccccccccccccccccccccccccccccccccccccccccccccccccccccccccccccccccccccccccccccccccccccccccccccccccccccccccccccccccccccccccccccccccccccccccccccccccccccccccccccccccccccsccccccccccsccccsccccsccsccsccsccccccsccsccccccccccccccccccccccccccccccccccccccccccccccccccccccccccccccssssssc" />
  </g>
  <g
     inkscape:groupmode="layer"
     id="layer12"
     inkscape:label="frame 1" />
  <g
     inkscape:groupmode="layer"
     id="layer10"
     inkscape:label="sun-moon"
     style="display:inline">
    <path
       id="path4686-4"
       style="color:#000000;clip-rule:nonzero;display:inline;overflow:visible;visibility:visible;opacity:1;isolation:auto;mix-blend-mode:normal;color-interpolation:sRGB;color-interpolation-filters:linearRGB;solid-color:#000000;solid-opacity:1;fill:none;fill-opacity:1;fill-rule:evenodd;stroke:#000000;stroke-width:3;stroke-linecap:round;stroke-linejoin:round;stroke-miterlimit:4;stroke-dasharray:none;stroke-dashoffset:0;stroke-opacity:1;marker:none;color-rendering:auto;image-rendering:auto;shape-rendering:auto;text-rendering:auto;enable-background:accumulate"
       d="m 850.34952,447.20584 c 35.81587,0 64.85036,29.03449 64.85036,64.85036 0,35.81588 -29.03449,64.85037 -64.85036,64.85037 -35.81586,0 -64.85036,-29.0345 -64.85036,-64.85037 0,-35.81586 29.0345,-64.85036 64.85036,-64.85036 v 0 m 59.41945,38.95387 21.47427,5.49951 m 46.41268,11.88619 33.23248,8.51078 -33.24975,8.5152 m -46.27262,11.85034 -21.59706,5.53097 m -118.35053,-52.77544 -133.39977,26.87898 133.39977,26.87891 m 219.01136,-26.99698 h -31.44743 m -56.41074,0 h -7.37664 m -256.58926,0.23609 126.89817,10e-6 m -32.58247,97.31047 38.71138,-70.07247 m -38.33591,69.86346 51.31189,-51.3119 M 850.46751,718.8546 V 576.90178 m 107.79293,42.8985 -62.00337,-62.00339 m -21.74936,14.40796 83.97455,47.98543 m -205.56194,-10.70567 70.07474,-38.71263 m 54.24954,0.20779 -26.89514,147.79066 -26.89201,-147.77345 m -32.5518,-31.91272 c -7.79422,4.78168 -21.67948,13.13813 -31.46443,14.95445 -5.81771,1.0799 -7.83038,-4.27113 -18.17034,-0.78121 -8.70241,2.93721 -12.11846,16.29213 -19.79633,20.63315 -7.57206,4.28118 -17.91923,-0.23906 -25.72159,3.69152 -4.84726,2.44191 -10.62574,11.18452 -10.62574,11.18452 m 86.98745,-14.2568 c -16.34184,-1.77943 -16.77285,-11.40776 -28.44456,-7.88712 -7.53281,2.27218 -6.59535,12.63413 -15.98827,15.82276 -9.00211,3.05595 -19.70517,-3.15608 -28.96559,-1.00631 -5.48991,1.27447 -14.81777,8.61182 -14.81777,8.61182 0,0 5.43985,-13.51095 11.01634,-17.78107 4.74864,-3.6362 11.9446,-2.23118 17.10844,-6.43106 6.71403,-5.4607 9.50466,-19.91859 20.07703,-23.70766 11.51793,-4.12795 17.12034,1.4906 19.84929,-0.8964 2.05214,-1.79501 3.9525,-5.34906 5.52788,-9.09654 m 169.7144,33.28868 c 3.44911,-0.34243 7.52477,-0.44527 10.07617,0.50371 6.89357,2.56403 8.05395,12.00731 16.31781,14.85225 6.48021,2.23088 20.35376,-2.06442 20.35376,-2.06442 0,0 -11.07789,-2.38876 -15.88763,-11.96803 -2.75274,-5.48245 0.26127,-11.19911 -3.5823,-15.9805 -5.3845,-6.69832 -12.58716,-5.68188 -21.45856,-11.30516 -2.37224,-1.50369 -4.0903,-3.68376 -5.33359,-6.09656 m -16.40534,4.20091 47.21135,82.61983 m -47.49255,-83.71927 c 1.95339,4.34452 5.36714,10.73306 9.32519,12.88697 8.77495,4.77521 15.45932,-0.0886 20.91203,3.77443 5.52671,3.91546 6.88151,14.80464 12.54977,21.24932 3.74353,4.25633 20.16163,4.33806 20.16163,4.33806 m -179.42993,7.25063 c -1.45183,1.77575 -4.93679,6.57437 -4.03332,10.75289 3.05055,14.10876 9.5858,9.6692 7.54859,26.6736 -1.04481,8.72095 -14.77667,10.31716 -16.99988,21.25149 -1.41116,6.94051 2.33632,11.79573 2.85207,19.00982 0.39468,5.52057 -2.57136,16.10346 -2.57136,16.10346 0,0 7.67507,-4.27141 10.84554,-8.66742 3.4709,-4.81256 1.81229,-10.9827 5.36915,-14.87208 6.4383,-7.04021 18.62457,-7.55256 23.48521,-15.6599 5.92629,-9.8848 -2.49853,-18.97915 2.46147,-26.22341 1.29499,-1.89139 4.26382,-3.45025 7.04666,-4.57125 m -6.00768,-38.12887 c -4.3241,7.37583 -10.7474,19.31248 -12.78093,27.54602 -2.50097,10.12618 2.04836,20.57041 -2.34892,28.79611 -5.23386,9.79063 -15.07474,8.85829 -19.34746,18.3438 -3.28403,7.29061 1.20695,16.46293 -1.11885,23.09329 -1.54069,4.39218 -7.15665,9.33742 -7.15665,9.33742 m 128.114,-86.38881 c 0.4602,1.4277 0.66412,2.92843 0.35529,4.35673 -3.05055,14.10876 -9.58579,9.6692 -7.54858,26.6736 1.04481,8.72095 14.77667,10.31716 16.99987,21.25149 1.41117,6.94051 -2.33631,11.79573 -2.85206,19.00982 -0.39469,5.52057 2.57135,16.10346 2.57135,16.10346 0,0 -7.67506,-4.27141 -10.84554,-8.66742 -3.47089,-4.81256 -1.81228,-10.9827 -5.36914,-14.87208 -6.4383,-7.04021 -18.62457,-7.55256 -23.48521,-15.6599 -5.9263,-9.8848 2.49852,-18.97915 -2.46147,-26.22341 -1.295,-1.89139 -4.26382,-3.45025 -7.04666,-4.57125 m 6.86067,-36.44151 c 4.2969,7.50208 10.10247,18.46752 11.92794,25.85866 2.50097,10.12618 -2.04836,20.57041 2.34891,28.79611 5.23387,9.79063 15.07474,8.85829 19.34747,18.3438 3.28403,7.29061 -1.20696,16.46293 1.11885,23.09329 1.54068,4.39218 7.15664,9.33742 7.15664,9.33742 m -166.02421,-264.12647 7.71175,13.95927 m 2.13398,3.86276 28.86565,52.25045 m -38.33591,-69.86346 13.74481,13.74485 m 0.43784,0.4378 37.12924,37.12924 m 45.85872,-160.89076 v 141.95281 m 107.79293,-42.89849 -62.00337,62.00338 m -21.74936,-14.40795 83.97455,-47.98544 m -205.56194,10.70568 70.07474,38.71262 m 54.24954,-0.20778 -26.89514,-147.79066 -26.89201,147.77345 m -31.82464,31.58471 c -7.79422,-4.78169 -22.40664,-12.81012 -32.19159,-14.62644 -5.81771,-1.0799 -7.83038,4.27113 -18.17034,0.78121 -5.62131,-1.89729 -9.03689,-8.14137 -12.82019,-13.49499 m 43.66398,-7.7574 c -16.34184,1.77943 -16.77285,11.40776 -28.44456,7.88712 -3.28088,-0.98964 -4.95496,-3.51391 -6.57559,-6.31173 m -19.62376,14.15812 c 3.73548,6.31732 7.32538,14.02736 14.62953,16.64512 11.51793,4.12796 17.12034,-1.49059 19.84929,0.89641 2.05214,1.79501 3.9525,5.34906 5.52788,9.09654 m 169.7144,-33.28868 c 3.44911,0.34242 7.52477,0.44527 10.07617,-0.50371 6.89357,-2.56403 8.05395,-12.00732 16.31781,-14.85225 6.48021,-2.23089 20.35376,2.06442 20.35376,2.06442 0,0 -11.07789,2.38876 -15.88763,11.96803 -2.75274,5.48245 0.26127,11.19911 -3.5823,15.9805 -5.3845,6.69832 -12.58716,5.68187 -21.45856,11.30516 -2.37224,1.50369 -4.0903,3.68376 -5.33359,6.09655 m -16.40534,-4.2009 47.21135,-82.61983 m -47.49255,83.71926 c 1.95339,-4.34451 5.36714,-10.73305 9.32519,-12.88696 8.77495,-4.77521 15.45932,0.0886 20.91203,-3.77443 5.52671,-3.91547 6.88151,-14.80464 12.54977,-21.24932 3.74353,-4.25634 20.16163,-4.33806 20.16163,-4.33806 m -180.18681,-8.24403 c -1.45183,-1.77575 -4.17991,-5.58097 -3.27644,-9.75949 3.05055,-14.10876 9.5858,-9.6692 7.54859,-26.6736 -1.04481,-8.72095 -14.77667,-10.31716 -16.99988,-21.2515 -1.41116,-6.9405 2.33632,-11.79572 2.85207,-19.00981 0.39468,-5.52057 -2.57136,-16.10346 -2.57136,-16.10346 0,0 7.67507,4.27141 10.84554,8.66742 3.4709,4.81256 1.81229,10.9827 5.36915,14.87208 6.4383,7.04021 18.62457,7.55256 23.48521,15.6599 5.92629,9.8848 -2.49853,18.97915 2.46147,26.2234 1.29499,1.8914 4.26382,3.45026 7.04666,4.57126 m -6.00768,38.12887 c -4.3241,-7.37583 -10.7474,-19.31248 -12.78093,-27.54603 -2.50097,-10.12617 2.04836,-20.5704 -2.34892,-28.7961 -5.23386,-9.79063 -15.07474,-8.85829 -19.34746,-18.34381 -3.28403,-7.29061 1.20695,-16.46292 -1.11885,-23.09328 -1.54069,-4.39218 -7.15665,-9.33742 -7.15665,-9.33742 m 128.114,86.38881 c 0.4602,-1.4277 0.66412,-2.92844 0.35529,-4.35673 -3.05055,-14.10876 -9.58579,-9.6692 -7.54858,-26.6736 1.04481,-8.72095 14.77667,-10.31716 16.99987,-21.2515 1.41117,-6.9405 -2.33631,-11.79572 -2.85206,-19.00981 -0.39469,-5.52057 2.57135,-16.10346 2.57135,-16.10346 0,0 -7.67506,4.27141 -10.84554,8.66742 -3.47089,4.81256 -1.81228,10.9827 -5.36914,14.87208 -6.4383,7.04021 -18.62457,7.55256 -23.48521,15.6599 -5.9263,9.8848 2.49852,18.97915 -2.46147,26.2234 -1.295,1.8914 -4.26382,3.45026 -7.04666,4.57126 m 6.86067,36.4415 c 4.2969,-7.50208 10.10247,-18.46751 11.92794,-25.85866 2.50097,-10.12617 -2.04836,-20.5704 2.34891,-28.7961 5.23387,-9.79063 15.07474,-8.85829 19.34747,-18.34381 3.28403,-7.29061 -1.20696,-16.46292 1.11885,-23.09328 1.54068,-4.39218 7.15664,-9.33742 7.15664,-9.33742 m 23.53331,134.98013 c 0.11373,1.54627 0.21912,2.7093 0.31618,4.2567 m -4.5e-4,55.00994 c -0.0969,1.54488 -0.20218,2.51348 -0.31573,4.05723 m 5.37904,-65.47452 c 0.14835,1.9124 0.28411,3.44191 0.40729,5.35609 m -6.4e-4,57.11463 c -0.12323,1.91435 -0.25906,3.25211 -0.40749,5.16467"
       inkscape:connector-curvature="0"
       sodipodi:nodetypes="csssccccccccccccccccccccccccccccccccccssccccscccscscccsccccccccccscccsscsccsscccsssscccsscccsscccsccccccccccccccccccccccccssccsccscccsscccccccccccccsscsccsscccsssscccsccccsscccscscccccccccc" />
    <path
       id="path9931"
       style="color:#000000;clip-rule:nonzero;display:inline;overflow:visible;visibility:visible;opacity:1;isolation:auto;mix-blend-mode:normal;color-interpolation:sRGB;color-interpolation-filters:linearRGB;solid-color:#000000;solid-opacity:1;fill:none;fill-opacity:1;fill-rule:evenodd;stroke:#000000;stroke-width:3.00000024;stroke-linecap:round;stroke-linejoin:round;stroke-miterlimit:4;stroke-dasharray:none;stroke-dashoffset:0;stroke-opacity:1;marker:none;color-rendering:auto;image-rendering:auto;shape-rendering:auto;text-rendering:auto;enable-background:accumulate"
       d="m 290.70061,454.2775 a 95.544923,95.544924 0 0 1 6.6061,105.49424 95.544923,95.544924 0 0 1 -130.5168,34.97187 95.544923,95.544924 0 0 1 -34.97187,-130.51679 95.544923,95.544924 0 0 1 129.97518,-35.28224 m 46.1546,37.81685 A 135.12782,135.12783 0 0 1 297.6414,579.56315 135.12782,135.12783 0 0 1 113.05335,629.02338 135.12782,135.12783 0 0 1 63.593131,444.43534 v 0 a 135.12782,135.12783 0 0 1 184.588049,-49.46022 135.12782,135.12783 0 0 1 38.98128,33.91184"
       inkscape:connector-curvature="0" />
  </g>
  <g
     inkscape:groupmode="layer"
     id="layer6"
     inkscape:label="center-star"
     style="display:inline">
    <path
       inkscape:connector-curvature="0"
       id="path1356-7-0"
       style="display:inline;fill:none;fill-rule:evenodd;stroke:#170000;stroke-width:3;stroke-linecap:butt;stroke-linejoin:miter;stroke-miterlimit:4;stroke-dasharray:none;stroke-opacity:1"
       d="m 255.79644,428.96697 158.39084,114.89611 -60.32679,186.1425 m -2.6e-4,0.002 158.21865,-115.13453 158.39131,114.89596 m 7e-4,2.2e-4 L 609.8631,543.71622 768.08123,428.58179 m -2.5e-4,-9.6e-4 -195.675,0.14741 -60.60642,-186.05198 m -0.002,9.7e-4 -60.32573,186.14157 -195.6745,0.14679"
       sodipodi:nodetypes="ccccccccccccccc" />
  </g>
  <g
     inkscape:groupmode="layer"
     id="layer8"
     inkscape:label="text"
     style="display:inline">
    <path
       id="path5567"
       style="fill:none;fill-rule:evenodd;stroke:#000000;stroke-width:6;stroke-linecap:round;stroke-linejoin:round;stroke-miterlimit:4;stroke-dasharray:none;stroke-opacity:1"
       d="m 518.84297,80.433158 h 14.80247 m -17.64129,-18.24962 13.99137,-4.25824 m -11.96365,40.75748 v -36.49924 m -14.59968,18.24962 -16.62743,0.20278 m 17.64129,18.04683 -0.40555,-39.94638 h -14.19415"
       inkscape:connector-curvature="0" />
    <path
       id="path5546-4"
       style="display:inline;fill:none;fill-rule:evenodd;stroke:#000000;stroke-width:6;stroke-linecap:round;stroke-linejoin:round;stroke-miterlimit:4;stroke-dasharray:none;stroke-opacity:1"
       d="m 531.25004,967.38766 v -29.01674 h -38.49709 v 29.01674 m 33.6338,-38.42973 h -28.7705 m 22.63086,9.75972 -2.89925,12.46943 m 7.60147,0.21659 c -33.59414,0 7.69847,0 -25.89567,0 m 26.08167,8.55882 c -28.9572,0 2.68953,0 -26.26767,0 m 12.98713,-21.69214 v -13.28599 m 0.29342,51.94077 v -25.33217 m -8.39233,-12.87531 2.89925,12.46943"
       inkscape:connector-curvature="0" />
    <path
       id="path5548-9"
       style="display:inline;fill:none;fill-rule:evenodd;stroke:#000000;stroke-width:6;stroke-linecap:round;stroke-linejoin:round;stroke-miterlimit:4;stroke-dasharray:none;stroke-opacity:1"
       d="m 88.349662,491.26236 -2e-6,41.47379 M 77.036942,492.32592 H 56.266307 l -4e-6,39.34667 h 20.770635 z m 10.286407,15.38074 H 70.206477 l -5.072222,-4.35195 v -10.87986 m 22.584725,26.21988 -23.286387,-0.10822 v 12.49264"
       inkscape:connector-curvature="0" />
    <path
       id="path5531-4"
       style="display:inline;fill:none;fill-rule:evenodd;stroke:#000000;stroke-width:6;stroke-linecap:round;stroke-linejoin:round;stroke-miterlimit:4;stroke-dasharray:none;stroke-opacity:1"
       d="m 954.20242,492.9244 h -16.13309 v 38.14972 h 16.13309 z m 0.98104,15.50081 c 0,0 8.91191,-5.528 13.76328,-15.75381 m -22.83268,0.58001 v 37.49569 m -16.04585,-35.32886 v 33.16204 m 25.11525,-13.00698 c 0,0 8.91191,5.528 13.76328,15.75381 m 8.33053,-19.29811 h -53.06041"
       inkscape:connector-curvature="0" />
    <path
       style="fill:none;fill-rule:evenodd;stroke:#000000;stroke-width:3;stroke-linecap:round;stroke-linejoin:round;stroke-miterlimit:4;stroke-dasharray:none;stroke-opacity:1"
       d="m 234.81078,254.5271 c 0,0 -4.8705,2.44156 -1.44429,5.88823 3.3796,3.39978 6.46849,-1.9545 3.77735,-4.66615 -2.731,-2.75182 -5.72585,-4.97568 -7.6658,-8.33239 -2.01095,-3.47958 -5.65448,-8.19785 -3.44406,-11.55426 1.57905,-2.39769 4.43176,-3.02162 7.11031,-1.33317 4.54006,2.86187 4.08315,5.43165 7.9991,8.1102 2.82018,1.92902 4.77724,-2.44417 4.33284,-3.99956"
       id="path5714"
       inkscape:connector-curvature="0"
       sodipodi:nodetypes="cssssssc" />
    <path
       style="fill:none;fill-rule:evenodd;stroke:#000000;stroke-width:3;stroke-linecap:round;stroke-linejoin:round;stroke-miterlimit:4;stroke-dasharray:none;stroke-opacity:1"
       d="m 386.6157,148.36351 c -0.85905,-3.2453 -2.5254,-8.50772 0.47725,-8.87684 3.44111,-0.42301 4.9634,9.73588 4.9634,9.73588 0,0 -3.19821,-12.2067 0.57266,-13.26753 3.50563,-0.9862 5.15429,13.45844 5.15429,13.45844 0,0 -2.89866,-14.27143 1.43175,-14.98565 3.89002,-0.64158 4.10434,15.272 4.10434,15.272 0,0 -2.26575,-16.72016 2.86349,-16.79918 2.71386,-0.0418 3.20005,2.7292 2.19535,5.05884 -0.7525,1.74486 -2.38625,3.81799 -5.15429,4.96339"
       id="path5716"
       inkscape:connector-curvature="0"
       sodipodi:nodetypes="cscscscssc" />
    <path
       id="path5732"
       style="fill:none;fill-rule:evenodd;stroke:#000000;stroke-width:3;stroke-linecap:round;stroke-linejoin:round;stroke-miterlimit:4;stroke-dasharray:none;stroke-opacity:1"
       d="m 590.70344,133.33015 7.46099,1.78172 c 0.89086,-1.55901 2.38391,-5.05576 6.90421,-3.78618 3.52341,0.98961 3.4521,4.34298 3.56346,6.12471 l 8.7973,2.22716 m -27.9509,-0.44543 27.06004,6.45878"
       inkscape:connector-curvature="0" />
    <path
       style="fill:none;fill-rule:evenodd;stroke:#000000;stroke-width:3;stroke-linecap:round;stroke-linejoin:round;stroke-miterlimit:4;stroke-dasharray:none;stroke-opacity:0.93486591"
       d="m 762.2943,226.47886 c 3.37757,-6.12186 6.37495,-9.04426 9.07724,-7.0718 3.99047,2.91275 -4.11643,11.71597 -4.11643,11.71597 0,0 6.5086,-9.95383 11.08267,-5.80521 3.91127,3.54748 -4.27098,8.93093 -6.33295,14.24916 -0.92986,2.3983 -1.49232,5.39903 1.26659,6.75515 3.02225,1.48556 5.06636,-1.79435 5.06636,-1.79435"
       id="path5750"
       inkscape:connector-curvature="0"
       sodipodi:nodetypes="cscsssc" />
    <path
       style="fill:none;fill-rule:evenodd;stroke:#000000;stroke-width:3;stroke-linecap:round;stroke-linejoin:round;stroke-miterlimit:4;stroke-dasharray:none;stroke-opacity:1"
       d="m 769.49342,798.71653 10.88837,-3.11095 1.41407,-10.74696 10.32272,-2.54532 0.98986,-10.18132 8.06021,-2.68674"
       id="path5754"
       inkscape:connector-curvature="0"
       sodipodi:nodetypes="cccccc" />
    <path
       style="display:inline;fill:none;fill-rule:evenodd;stroke:#000000;stroke-width:3;stroke-linecap:round;stroke-linejoin:round;stroke-miterlimit:4;stroke-dasharray:none;stroke-opacity:1"
       d="m 763.69573,792.63602 10.88836,-3.11095 1.41407,-10.74696 10.32273,-2.54532 0.98985,-10.18133 8.06021,-2.68673"
       id="path5754-5"
       inkscape:connector-curvature="0"
       sodipodi:nodetypes="cccccc" />
    <path
       id="path5775"
       style="fill:none;fill-rule:evenodd;stroke:#000000;stroke-width:3;stroke-linecap:round;stroke-linejoin:round;stroke-miterlimit:4;stroke-dasharray:none;stroke-opacity:1"
       d="m 608.84598,885.25775 19.83238,-6.61078 m 2.40392,8.11324 c 0,0 -6.71358,-2.13202 -8.11325,-6.3103 -1.38079,-4.12192 2.25369,-8.41373 2.25369,-8.41373 m -13.22159,21.18457 c 0,0 2.419,-6.17923 1.35222,-9.61569 -1.06088,-3.41742 -4.35712,-5.85956 -6.91129,-7.21176"
       inkscape:connector-curvature="0"
       sodipodi:nodetypes="cccsccsc" />
    <path
       style="fill:none;fill-rule:evenodd;stroke:#000000;stroke-width:3;stroke-linecap:round;stroke-linejoin:round;stroke-miterlimit:4;stroke-dasharray:none;stroke-opacity:1"
       d="m 422.27506,891.72714 c -0.93329,2.64431 -4.36222,6.32178 -7.38852,5.3664 -7.11418,-2.24591 -0.31109,-15.32147 -0.31109,-15.32147 0,0 -5.39004,15.48349 -11.82165,12.52161 -3.3684,-1.55123 -1.39993,-7.4663 -1.39993,-7.4663"
       id="path5778"
       inkscape:connector-curvature="0"
       sodipodi:nodetypes="cscsc" />
    <path
       style="fill:none;fill-rule:evenodd;stroke:#000000;stroke-width:3;stroke-linecap:round;stroke-linejoin:round;stroke-miterlimit:4;stroke-dasharray:none;stroke-opacity:0.95402299"
       d="m 230.97408,788.66601 c 0.72471,-1.52189 2.56411,-7.14808 0.0725,-8.55159 -4.58349,-2.58184 -5.52324,-6.09574 -2.31909,-10.21845 2.0063,-2.58145 6.26524,-2.24707 8.98644,-0.43482 2.95042,1.96491 3.44211,5.18504 1.44943,8.11677 -3.24879,4.77974 -7.41777,3.39133 -11.74035,0 -1.73409,-1.36049 -4.85556,-2.10166 -7.89935,-0.86965"
       id="path5780"
       inkscape:connector-curvature="0"
       sodipodi:nodetypes="csssssc" />
  </g>
</svg>
