<?xml version="1.0" encoding="UTF-8" standalone="no"?>
<!-- Created with Inkscape (http://www.inkscape.org/) -->

<svg
   xmlns:dc="http://purl.org/dc/elements/1.1/"
   xmlns:cc="http://creativecommons.org/ns#"
   xmlns:rdf="http://www.w3.org/1999/02/22-rdf-syntax-ns#"
   xmlns:svg="http://www.w3.org/2000/svg"
   xmlns="http://www.w3.org/2000/svg"
   xmlns:sodipodi="http://sodipodi.sourceforge.net/DTD/sodipodi-0.dtd"
   xmlns:inkscape="http://www.inkscape.org/namespaces/inkscape"
   width="1024"
   height="1024"
   viewBox="0 0 1024 1024"
   version="1.1"
   id="svg8"
   inkscape:version="0.92.2 (5c3e80d, 2017-08-06)"
   sodipodi:docname="sakura's-magic-circle-clear-card-arc.svg"
   enable-background="new"
   inkscape:export-filename="bitmap.png"
   inkscape:export-xdpi="96"
   inkscape:export-ydpi="96">
  <defs
     id="defs2" />
  <sodipodi:namedview
     id="base"
     pagecolor="#ffffff"
     bordercolor="#666666"
     borderopacity="1.0"
     inkscape:pageopacity="0.0"
     inkscape:pageshadow="2"
     inkscape:zoom="0.55371094"
     inkscape:cx="512"
     inkscape:cy="532.71416"
     inkscape:document-units="px"
     inkscape:current-layer="layer20"
     showgrid="false"
     units="px"
     inkscape:window-width="1440"
     inkscape:window-height="770"
     inkscape:window-x="0"
     inkscape:window-y="23"
     inkscape:window-maximized="0"
     objecttolerance="1" />
  <metadata
     id="metadata5">
    <rdf:RDF>
      <cc:Work
         rdf:about="">
        <dc:format>image/svg+xml</dc:format>
        <dc:type
           rdf:resource="http://purl.org/dc/dcmitype/StillImage" />
        <dc:title />
      </cc:Work>
    </rdf:RDF>
  </metadata>
  <g
     inkscape:groupmode="layer"
     id="layer27"
     inkscape:label="text"
     style="display:inline"
     sodipodi:insensitive="true">
    <path
       style="display:inline;opacity:1;fill:#000000;fill-opacity:1;fill-rule:evenodd;stroke:none;stroke-width:1px;stroke-linecap:butt;stroke-linejoin:miter;stroke-opacity:1"
       d="m 844.17864,267.39868 c -1.42087,0.35414 -2.81583,0.77242 -4.1802,1.2532 -0.12197,0.43853 -0.13239,0.86311 0.0192,1.25642 1.40454,3.6429 -0.91573,6.00277 -3.08969,7.72363 -2.05566,1.62724 -8.85678,1.57239 -13.62256,1.30886 -3.3562,3.21677 -6.22928,6.92574 -8.50166,11.01022 2.97287,3.81988 7.22041,8.82938 9.2433,9.06245 1.39243,-0.68022 2.01511,-0.78956 0.52438,-0.0663 -0.15046,0.073 -0.32849,0.0889 -0.52438,0.0663 -2.3407,1.14349 -6.85991,3.90145 -7.19816,7.03871 -0.81232,7.53442 7.61854,11.47652 13.59259,16.37192 2.89588,2.37303 21.09382,6.99316 3.70722,5.25254 -8.32012,-0.83295 -18.22216,-4.65852 -24.55467,-7.47963 0.46717,2.81639 1.18695,5.54326 2.13286,8.15921 4.64206,2.91661 10.76658,6.41475 15.31565,7.66049 15.06694,2.30868 7.80413,-2.19485 6.46189,7.2474 -0.64997,4.32135 4.22529,8.87898 8.05755,10.97918 8.22176,4.5059 34.29024,-2.78038 34.29024,-2.78038 l 11.98624,-5.53187 c 0.95802,-0.92877 1.87002,-1.90386 2.74508,-2.91094 -4.75368,1.31207 -10.29918,2.76261 -14.11379,3.49955 -5.70584,1.10232 -10.66176,2.3299 -15.13691,-0.6175 -2.00021,-1.31739 -4.79066,-1.0947 -3.3979,-5.25147 1.66388,-4.96604 16.41608,-7.21617 20.69765,-7.41435 5.25,-0.243 6.30698,0.23533 11.73906,1.23609 3.26108,0.60079 5.19619,-8.47799 7.72254,-11.12153 1.32843,-1.39004 2.45598,-2.78495 3.4225,-4.17378 0.38531,-2.68938 0.53929,-5.44956 0.44203,-8.2598 -0.19732,-5.69792 -1.4126,-11.12038 -3.46322,-16.10009 -1.72487,0.90407 -3.57653,1.64657 -5.03526,1.6588 -6.35745,0.0534 -12.50876,-3.57157 -17.29981,-8.03185 -3.03817,-2.82842 -8.6285,-6.86957 -6.17827,-9.88543 1.49698,-1.84254 6.88397,-4.25125 10.02461,-5.55113 -2.35177,-1.46292 -4.84156,-2.72051 -7.44435,-3.74998 -2.63472,0.68645 -5.91673,2.18004 -9.99354,4.97536 -3.9357,2.69857 -4.77504,3.53753 -11.48109,8.48348 -4.2077,3.1033 -8.39985,8.18694 -13.54125,8.1988 -5.59619,-0.8492 6.97849,-7.13782 8.03185,-8.34114 4.75445,-6.18427 -1.75336,-9.62293 -1.54536,-13.90083 0.0197,-0.40524 0.0767,-0.83851 0.14554,-1.27461 z m 18.43744,22.65934 c 0.6995,0.0111 2.10355,0.56473 4.58578,2.09225 l 8.03185,4.94325 c 3.54437,2.18113 -2.41522,2.57542 -4.32469,2.16181 -3.8454,-0.83295 -6.8249,-4.54585 -8.64932,-8.03185 -0.33765,-0.64512 -0.34313,-1.17654 0.35638,-1.16546 z m -6.63416,2.39833 c 2.13166,0.10743 3.26141,4.59655 3.18809,6.79898 -0.0762,2.29143 -5.04408,-0.72624 -6.48649,-0.9268 -1.00448,-0.13968 -3.25335,-0.3379 -2.78037,-1.23501 2.04964,-3.88747 2.3475,-4.34173 5.86896,-4.63396 0.0708,-0.006 0.14104,-0.007 0.20981,-0.003 z m 22.6058,6.42762 c 2.4932,-0.0472 11.44641,4.71105 12.70969,8.40321 1.49002,4.35472 -6.27794,8.80257 -10.5029,12.04831 -5.00321,3.84357 -11.62279,3.20488 -17.22277,4.56869 -3.33932,0.81324 -5.02764,0.71279 -9.51513,1.87071 -4.37208,-5.46137 -8.02171,-7.56662 -10.22789,-8.38502 -1.42723,-0.31513 -2.26667,-0.52547 -2.26667,-0.52547 0,0 0.8304,-0.007 2.26667,0.52547 3.351,0.73991 10.31907,2.12249 19.97524,3.1817 6.21416,0.68164 10.24603,-0.75399 10.81228,-4.63397 0.34843,-2.38742 -5.86901,-7.10505 -5.86901,-7.10505 0,0 13.30437,9.52155 17.60802,5.86897 1.65615,-1.40558 -0.70959,-3.82761 -1.54432,-5.56075 -1.59983,-3.32174 -3.92651,-5.29166 -6.48753,-8.95865 -0.62564,-0.8958 -0.43375,-1.28493 0.26432,-1.29815 z m -38.39876,2.34374 c 1.16783,-0.049 2.60738,0.56381 2.91735,1.60743 0.38225,1.28703 -0.90662,1.50436 -2.1618,1.98095 -1.40169,0.53221 -3.88321,0.19782 -4.32469,-1.23502 -0.47364,-1.53717 1.52054,-1.93288 3.08859,-2.29129 0.15162,-0.0346 0.3137,-0.0551 0.48055,-0.0621 z m 11.1258,2.31698 c 2.49024,0.0499 5.83269,3.45684 4.76667,5.59608 -0.41589,0.83457 -1.93057,0.0756 -2.78037,-0.30822 -1.39512,-0.63011 -3.07276,-1.5938 -3.39791,-3.08967 -0.16657,-0.76633 0.15469,-2.02452 0.92679,-2.16181 0.15688,-0.0279 0.3188,-0.0397 0.48482,-0.0364 z m -16.59558,6.25639 c 3.07784,0.0765 6.65454,1.18607 5.91602,3.35614 -0.32729,0.96176 -2.72431,0.26407 -4.01538,0.3093 -1.91423,0.067 -4.18387,-1.5372 -4.63395,-3.39896 -0.66591,0.18352 -0.1623,-0.67142 0,0 0.73666,-0.20302 1.70734,-0.29197 2.73331,-0.26648 z"
       id="path2035"
       inkscape:connector-curvature="0" />
    <path
       style="display:inline;opacity:1;fill:#000000;fill-opacity:1;fill-rule:evenodd;stroke:none;stroke-width:1px;stroke-linecap:butt;stroke-linejoin:miter;stroke-opacity:1"
       d="m 180.7937,666.5951 c -2.65101,2.55332 -4.84704,8.64835 -14.94213,9.54297 -5.32402,0.47182 -13.86614,-4.10004 -17.82526,-6.42869 -0.87194,0.42864 -1.72777,0.88627 -2.56741,1.36665 -0.0381,1.06663 0.0953,2.23662 0.7149,3.10037 3.307,4.61005 8.4957,8.09856 15.51897,9.77093 0.62908,0.10676 1.23089,0.226 1.78188,0.36601 6.16072,0.9041 15.66544,-5.56437 17.3747,-2.08262 1.47729,3.00925 -2.78576,7.07315 -1.4544,15.58319 -3.01691,-5.24005 -17.55093,1.10197 -31.77103,2.31484 -2.40777,-1.22008 -20.5139,-3.27502 -11.0038,-4.98499 9.22096,-1.65799 15.99949,-3.96616 15.99949,-3.96616 0,0 -3.06384,5.63667 -1.07234,5.95352 3.16651,0.50381 5.55829,-1.22915 10.69772,-3.38718 2.99901,-1.25928 5.16435,-3.83025 4.77095,-7.05904 -0.13619,-1.11781 -1.53799,-1.86253 -3.54129,-2.37156 -0.11379,-0.0167 -0.22888,-0.0306 -0.34032,-0.0524 -0.4887,-0.0958 -0.96944,-0.20114 -1.44156,-0.31357 -4.51069,-0.76553 -10.66807,-0.75192 -13.47168,-0.9696 -7.00572,-0.54394 -12.11847,1.04965 -17.62727,1.58818 -1.5306,2.15433 -2.88629,4.43871 -4.0368,6.83964 1.43359,7.58573 0.46768,13.88906 0.46768,13.88906 0,0 5.23451,-2.3594 8.76494,-3.2823 2.0823,-0.54434 6.67591,1.5154 6.67591,1.5154 0,0 -7.06569,0.20526 -15.68806,4.36535 -5.12752,2.47391 3.52349,2.79642 0.7791,17.45925 -1.9362,10.34478 7.16175,-1.9793 8.02543,-6.39552 0.9883,-5.05332 11.65612,-8.91741 17.86164,-11.05517 2.47369,-0.49619 4.62969,2.52568 4.62969,2.52568 0,0 -8.86504,3.50713 -13.11316,12.05045 -2.05582,4.13442 -4.28408,17.38793 -0.28789,11.93166 2.3265,-3.17652 4.87414,-7.82501 6.9563,-10.39271 3.15875,-3.89534 8.99253,-9.57059 13.82806,-8.24054 3.87213,1.06505 6.62882,14.64889 6.62882,14.64889 0,0 -8.87455,-7.54032 -14.26363,-6.72942 -4.14613,0.62388 -9.27232,6.69929 -5.91285,6.72942 9.01849,0.0809 13.57496,0.25546 15.57462,4.92293 1.93735,4.52203 -15.55993,0.34682 -15.08768,3.8174 0.42583,3.12952 0.31058,10.23248 -0.68386,15.68699 0.8432,0.32729 1.69856,0.63002 2.5642,0.9086 3.74705,-4.60329 10.14767,-11.52811 18.87726,-14.85331 3.29505,2.55408 3.38881,12.31947 3.28016,16.40403 0.20586,-0.0352 0.41155,-0.0702 0.61644,-0.10809 1.16697,-3.00439 3.9746,-8.87627 9.53762,-13.79809 3.1413,-2.77922 -6.81917,-3.67743 -6.0798,-6.64487 5.61297,-2.09473 11.28886,-8.06325 13.4995,-7.18854 3.73327,1.4772 -1.66039,8.87988 0.32534,10.36917 3.97569,-4.84474 6.69812,-9.31243 9.51515,-14.68207 2.01636,-4.69781 10.19794,-11.47683 10.19794,-11.47683 0,0 -10.70472,3.37038 -16.18785,3.06185 -7.85236,-0.44185 -25.02342,-2.38548 -25.02342,-2.38548 l -4.06569,-2.50855 c 6.47125,-1.63172 23.32718,3.63892 23.20408,-0.0642 -0.24631,-7.40927 -2.48191,-9.28807 -0.55972,-13.6504 2.7951,-6.34335 7.01318,-12.90966 15.74907,-11.79789 0.19886,0.0253 0.38214,0.0172 0.55757,-0.006 -2.43619,-3.80494 -5.40747,-7.22595 -8.80667,-10.16155 -1.2608,0.41456 -2.63266,1.05103 -4.13205,1.98522 -5.36403,3.34204 -6.79135,-5.23417 -8.87945,-9.93788 -1.65854,-0.66883 -3.36339,-1.2456 -5.10806,-1.72195 z m -1.90175,33.13554 c 0.6722,0.75996 0.82406,3.95974 0.82406,3.95974 l -18.11314,3.20846 c 0,0 -2.75387,-0.98585 -2.49784,-2.02696 7.53319,-3.79282 12.38906,-4.37503 19.78692,-5.14124 z m -1.85144,18.9083 c 4.98185,-0.20063 9.70236,3.25254 13.4385,5.26431 0,0 -6.50385,2.56999 -11.33556,6.06375 -1.60578,-1.35282 -3.10251,-11.23817 -3.10251,-11.23817 0.33424,-0.0473 0.66744,-0.0765 0.99957,-0.0899 z"
       id="path2086"
       inkscape:connector-curvature="0" />
    <path
       style="display:inline;opacity:1;fill:#000000;fill-opacity:1;fill-rule:evenodd;stroke:none;stroke-width:1px;stroke-linecap:butt;stroke-linejoin:miter;stroke-opacity:1"
       d="m 518.52425,864.80473 c -4.6392,10.70652 -7.48451,8.09914 -12.64549,16.30983 -1.76701,4.66184 -6.15201,11.97945 -1.09909,14.84371 3.77854,2.14185 12.07348,-6.16539 14.47767,-1.28317 2.96466,6.02035 -5.22833,12.33309 -12.64549,19.60817 -4.36834,4.2847 -8.0145,8.40374 -6.41371,14.11166 1.38656,4.94403 6.97854,3.84168 13.0115,8.24593 6.20055,4.52661 3.03254,9.7445 -6.41371,17.77602 8.80833,-0.66082 18.48389,-11.25413 17.04186,-17.95903 -1.02956,-4.01768 -8.24589,-8.98007 -8.24589,-8.98007 -1.91698,-1.83873 -6.5839,-7.55738 0.36601,-14.66069 4.7248,-4.82902 9.07954,-8.81338 10.44622,-14.84256 0.61991,-3.21499 1.07333,-7.78105 -1.10017,-9.89617 -2.65854,-2.58722 -11.54424,-4.39849 -11.54424,-4.39849 -3.79342,-1.17731 5.85078,-11.3926 4.76453,-18.87514 z m -8.15814,5.49438 c -2.10686,0.0148 -11.12676,0.37288 -20.61312,5.13482 -11.37329,5.77893 -16.49004,16.61778 -16.30985,21.6234 0.37023,10.28466 10.18916,4.68645 13.74351,5.49762 3.86185,0.88131 9.98719,0.48241 10.26322,2.19928 0.19497,2.97702 -13.11328,7.10714 -17.22702,9.16307 -7.35119,3.67401 -9.80203,9.49475 -9.77306,14.00678 1.00276,2.28279 2.18457,4.49105 3.54878,6.59668 3.02698,0.82126 5.59335,-1.9018 6.04128,-4.29362 1.21407,-6.48271 -6.82845,-2.57248 -5.88717,-5.33707 2.3458,-6.88977 15.55429,-9.36965 15.55429,-9.36965 0,0 -6.2955,2.15944 -7.17034,9.14061 0.50608,4.77521 0.97257,5.16863 0.0599,7.18424 -0.91267,2.01561 -4.96573,5.06386 -2.90024,8.85059 0.63935,1.1721 1.24618,2.05889 1.82362,2.74184 0.54596,0.50137 1.1058,0.99063 1.67914,1.46833 1.90426,1.07309 3.36927,-0.11858 4.35465,-0.9343 10.49529,-8.68867 -4.94754,-8.24697 -4.94754,-8.24697 0,0 -0.58704,-4.26387 6.41371,-2.74936 3.89274,0.84219 5.06027,-4.04162 4.39745,-6.23071 -1.37586,-4.54403 -5.58445,-0.36969 -8.24589,-0.18301 -1.02168,-5.77011 6.0477,-10.62811 6.0477,-10.62811 0,0 3.49364,-0.0225 6.77972,-2.38339 2.42264,-1.74076 10.12057,-3.65066 10.07914,-9.34603 -1.36843,-8.84478 -16.90713,-4.10952 -20.89137,-9.71206 -3.40895,-4.79357 2.84728,-10.15765 6.0477,-14.29358 4.97449,-6.42851 17.59302,-9.89617 17.59302,-9.89617 0,0 -0.16028,-0.005 -0.46126,-0.005 z m 29.4776,11.31523 c -5.04413,0.0307 -7.94443,4.20973 -9.3161,8.80029 -3.4898,11.67923 4.26413,11.19222 2.88633,14.61466 -1.31715,3.27182 -10.17756,0.32039 -13.60759,8.01794 -1.52277,3.41729 -1.81163,8.7016 1.46617,10.12406 7.22783,3.13669 10.84446,-0.24472 13.74458,1.32919 5.48379,2.97599 7.66318,7.02961 6.41371,10.30817 -4.73658,12.42871 -5.99984,3.60623 -9.89614,3.66437 -3.36025,0.0504 -3.20998,2.52689 -2.93128,4.21554 0.51928,3.14617 3.47391,4.78365 6.59672,5.3146 2.43876,0.41463 6.59682,-1.6778 7.87988,-4.3985 1.45238,-3.07976 4.19528,-5.59126 4.03144,-13.37752 -0.12664,-6.01854 -5.35097,-11.00416 -9.391,-10.99523 -15.86917,0.0351 -10.40021,-5.13165 -10.40021,-5.13165 0,0 3.55915,2.07243 9.71207,-1.28207 2.52131,-1.37457 5.75051,-3.90059 6.2307,-6.78079 1.12739,-6.76216 -9.02567,-4.0619 -6.2307,-15.02667 1.29257,-5.07082 8.29367,-5.37438 9.16305,-1.65023 1.03221,4.42151 -2.7034,1.25276 -4.55798,1.91133 -1.85458,0.65857 -1.36355,4.7111 1.65881,6.31208 4.95445,2.62448 8.07435,-4.95499 8.03078,-6.39016 -0.1599,-5.26721 -4.75269,-8.95371 -10.44622,-9.52911 -0.35551,-0.0356 -0.70075,-0.0521 -1.03702,-0.0504 z"
       id="path2094"
       inkscape:connector-curvature="0" />
    <path
       style="display:inline;opacity:1;fill:#000000;fill-opacity:1;fill-rule:evenodd;stroke:none;stroke-width:1px;stroke-linecap:butt;stroke-linejoin:miter;stroke-opacity:1"
       d="m 512.57072,68.31256 c -2.73633,3.329495 -5.77499,8.640707 -6.08622,11.964839 -0.47579,5.081618 4.0809,5.94751 4.68105,9.684242 1.00544,6.260127 -8.35261,-1.665044 -8.96721,-5.94282 -0.64282,-4.474257 2.98663,-11.447313 5.46659,-15.60138 -2.02382,0.146915 -4.03267,0.415165 -6.01239,0.821914 -5.85584,5.689533 -9.96815,14.319288 -8.80239,21.879173 1.12834,7.317279 9.78818,5.728985 12.14356,10.272852 2.24622,4.33328 3.06967,7.23998 1.87071,11.36338 -0.86412,2.97182 -4.66827,3.98646 -8.30262,3.66865 0.0306,-0.22339 0.0615,-0.44733 0.0792,-0.6646 0.53827,-6.62274 -5.55414,-7.96516 -6.72621,-12.12644 -0.83655,-2.97005 2.94189,-15.210239 -3.39039,-5.014948 -1.55737,2.507428 0.76724,11.880338 -3.13034,10.223618 -8.82529,-3.75131 3.37781,-13.26094 2.24421,-21.411491 -2.18297,-15.695483 -4.36929,1.267923 -7.23455,3.928704 -8.05856,7.483437 -12.58936,21.855297 -6.22107,29.262477 1.95467,2.27355 5.90002,-1.53232 8.58728,-0.37029 3.32175,1.43639 3.29043,7.18376 6.90814,7.08687 4.16082,-0.11144 7.448,-4.91387 8.57338,-9.34285 2.10544,1.44184 4.51042,3.22029 4.86512,4.29899 1.0377,3.15578 0.36285,6.89983 -1.67593,9.52265 -2.75014,3.53796 -7.42119,8.13123 -11.75936,6.53785 -5.05416,-1.85636 -1.59027,-11.54244 -6.15793,-14.93358 -3.16794,-2.35195 -9.65599,0.88916 -12.70542,-1.88034 -3.67804,-3.34041 0.63268,-15.36703 1.31528,-21.51744 0.36119,-3.254359 -0.67241,-6.247051 -1.74442,-7.910916 -0.15635,0.27996 -0.31207,0.561055 -0.4634,0.845459 -0.4578,0.860368 -0.8813,1.72987 -1.27996,2.604863 0.27733,2.659187 0.50525,4.271935 -0.80907,7.825304 -1.33539,3.61032 -2.44006,7.32704 -3.36578,10.92674 -0.0681,6.98769 1.4452,13.8894 4.37605,20.17648 2.82382,-0.88019 5.60359,-1.60577 7.01195,-1.55071 1.91726,0.0749 2.10502,3.04005 2.05264,5.37775 -0.0417,1.86274 -1.02168,4.62201 -2.03338,7.00981 3.47356,3.99758 7.69005,7.46133 12.58235,10.16797 4.6099,-1.28345 11.42474,-3.50977 14.28931,-6.12155 4.68958,-4.27572 5.72905,-16.96247 8.217,-17.17457 1.5172,-0.12934 2.48174,9.09662 6.14187,13.80238 2.45711,3.15906 10.71462,8.73306 13.86337,10.80474 5.35516,-2.54283 10.25619,-6.11599 14.36851,-10.62495 0.59798,-1.38357 -0.24671,-2.11617 -3.74677,-1.48544 -7.60354,1.37021 -12.33512,0.39383 -12.33512,0.39384 0,0 17.85748,-1.0067 17.97294,-13.73602 0.0393,-4.33109 -1.43016,-7.21006 0.72773,-12.97404 1.93745,-5.17514 6.17005,-10.2141 8.60762,-12.85096 -0.06,-0.29388 -0.13452,-0.58391 -0.20012,-0.87649 -4.1056,2.12439 -13.25107,7.15095 -14.76984,10.54468 -2.84617,6.35984 -3.19752,18.90766 -8.96721,20.73084 -4.2603,1.34623 -11.45047,-3.316 -14.75484,-7.65835 -2.23268,-2.93401 -2.24716,-6.96138 -2.05265,-10.64314 0.51074,-9.66768 8.27418,-11.7585 6.72621,-22.971843 -1.12058,-8.11745 -7.83319,-9.485301 -9.88972,-15.497567 -1.52891,-4.469775 2.2248,-7.871703 3.82918,-10.547892 -1.30534,-0.155074 -2.61213,-0.253002 -3.91694,-0.296448 z m 17.45711,6.948814 c -1.48254,-0.09953 -3.97068,3.552509 -4.51731,6.974492 -0.5239,3.279589 3.09441,7.667907 3.2031,10.926745 0.092,2.757285 -0.86705,5.323042 -1.69626,7.911979 -1.90328,5.94242 -6.96165,7.86672 -7.72364,13.9415 -0.21617,1.7234 -0.32645,6.04464 0.56507,7.53528 1.23414,2.06353 3.13103,4.12562 5.46337,4.70995 3.62073,0.90713 10.22101,0.96952 10.92674,-2.44861 -1.46612,-4.53639 -14.3413,-0.84093 -6.02843,-6.78293 3.13691,-2.24226 4.36962,-0.0305 9.23154,-5.46337 3.46068,-3.86708 5.97541,-7.83443 5.27502,-13.375363 -0.44034,-3.48361 -7.58389,-11.486387 -5.27502,-2.449687 1.00397,3.92943 -0.48899,5.88069 -1.69627,7.91305 -0.79118,1.3319 -6.20291,3.58415 -2.26026,-3.39146 1.61153,-2.85122 2.26348,-6.890372 0.75342,-9.79661 -1.31217,-2.525379 -5.86461,-6.581529 -5.27501,-11.115095 0.4708,-3.620157 -0.0565,-5.030156 -0.94606,-5.089871 z"
       id="path2033"
       inkscape:connector-curvature="0" />
  </g>
  <g
     inkscape:groupmode="layer"
     id="layer21"
     inkscape:label="frame"
     style="display:inline">
    <path
       id="path3012-83"
       style="display:inline;opacity:1;fill:none;fill-rule:evenodd;stroke:#000000;stroke-width:3;stroke-linecap:butt;stroke-linejoin:miter;stroke-miterlimit:4;stroke-dasharray:none;stroke-opacity:1"
       d="m 356.56546,322.5939 -0.61082,1.55508 m -41.8193,-60.76232 -31.7238,-9.50936 19.94338,-6.11459 m 21.21893,-6.50567 11.3419,-3.4774 -15.49529,-59.09142 44.85146,42.43226 38.78166,-35.7565 -14.99483,60.15902 43.26768,37.78364 -49.7033,-7.05431 130.17478,183.03554 m -331.96062,6.80009 -5.18562,-23.0556 26.0671,25.16915 m 67.26278,6.42091 -25.33352,32.41322 223.57748,-21.21469 m 243.58506,274.77624 31.77787,9.52554 -19.8393,6.08266 m -21.32812,6.53914 -11.33682,3.47582 15.49532,59.09143 -44.85147,-42.43222 -38.78165,35.75648 14.99482,-60.15905 -43.26768,-37.78359 49.71479,7.23532 -130.18701,-183.2171 m 331.94471,-6.87327 5.20222,23.12933 -26.02595,-25.12941 m -67.43257,-6.2982 25.47437,-32.4019 -223.59008,21.0408 m -1.0355,-0.3492 v 0 m 0,0 0.66561,0.38429 m 0,0 129.87123,74.98121 m 17.838,10.29878 30.14057,17.40166 m -160.75894,-65.3169 10e-4,4.1e-4 m 0,0 106.44098,50.21689 m 18.63403,8.79119 31.48535,14.8542 m 34.12906,16.10143 1.20063,0.56643 M 740.27082,632.78976 711.67275,612.9558 M 694.74767,601.21754 598.30848,534.33293 M 466.59587,485.78593 336.74128,410.81435 M 318.89795,400.5125 284.94613,380.91041 m 164.56015,67.51139 -10e-4,-4.2e-4 m 0,0 -106.40343,-50.19922 m -18.64618,-8.79693 -43.74656,-20.63884 m 16.26584,31.61027 15.34892,10.64513 m 16.92625,11.73906 96.442,66.88659 m 0,0 v 0 m 40.90308,48.54714 -190.15548,109.7863 m -20.98055,12.11314 -27.39919,15.81894 m 197.63166,-141.6 v 0 m 0,0 -153.3113,106.32781 m -20.02335,13.88703 -26.34076,18.26841 m 3.81896,6.39881 28.89022,-13.62985 m 22.00431,-10.38126 168.77572,-79.62523 m 0,0 10e-4,-4.2e-4 m 62.49377,-11.15029 -1e-5,219.51793 m 1e-5,24.28399 -1e-5,31.63518 M 488.18659,597.91158 v 0 m 0,0 15.42686,185.93421 m 2.01402,24.27423 2.65147,31.95727 m 7.4511,-0.10915 2.64224,-31.84592 m 2.01108,-24.23895 15.42997,-185.97169 m 0,0 v 0 M 557.40408,485.78592 747.5599,375.99943 m 20.98126,-12.11354 27.39826,-15.81838 M 598.30798,489.66744 v -10e-4 m 0,0 L 751.61856,383.339 m 20.02341,-13.88703 26.34073,-18.26843 m -3.81981,-6.39839 -28.88889,13.62925 m -22.00559,10.38182 -168.77376,79.62431 m 0,0 -10e-6,1e-5 M 511.99876,459.5707 V 240.05358 m 10e-6,-24.28388 -10e-6,-31.6351 m 23.81351,241.95367 v 0 m 0,0 -15.42693,-185.93501 m -2.01404,-24.27436 -2.65147,-31.9573 m -7.45094,0.10924 -2.64224,31.84604 m -2.0111,24.23902 -15.43002,185.9724 m 0,0 v 0 m -20.92514,60.08193 v 0 m 0,0 -0.66481,-0.38384 m 0,0 -5.5e-4,-4.6e-4 m 0.6654,52.0439 v 0 m 0,0 -0.66562,0.38429 m 0,0 -5.5e-4,4.6e-4 m 45.40463,25.44498 v 0.76841 m 44.73848,-78.25776 v 0 m 0,0 0.66481,-0.38383 m 0,0 5.4e-4,-4.6e-4 m -45.40383,-25.4455 v 0 m 0,0 v -0.76947 m 58.63932,-49.13734 -13.90087,75.73655 72.54024,25.82976 -72.54024,25.82977 13.90088,75.73655 -58.63934,-49.90679 -58.63933,49.90679 13.90087,-75.73655 -72.54022,-25.82975 72.54021,-25.82977 -13.90088,-75.73656 58.63934,49.90679 58.63934,-49.90679 v 0 m 208.70535,151.89192 c -2.843,15.10108 -6.95588,29.90822 -12.28017,44.26515 m -43.91647,76.93799 c -3.90801,4.81028 -7.99143,9.50055 -12.24651,14.06084 -6.2475,6.69565 -12.80014,13.04146 -19.62723,19.02349 m -74.07477,46.26215 c -30.10862,12.62586 -62.52797,19.84955 -95.7866,21.00105 -39.65708,1.37303 -78.72082,-5.94918 -114.62414,-21.00587 m -59.42473,-34.30448 c -7.24396,-5.50814 -14.23913,-11.40022 -20.9526,-17.66441 -46.63482,-43.51364 -76.2998,-101.82916 -84.27747,-164.58668 m 2.5179,-84.61794 c 3.7943,-20.16334 9.85253,-39.80279 18.03551,-58.54638 m 16.39364,-31.70037 c 6.7149,-11.1284 14.2491,-21.81103 22.56728,-31.95348 m 27.18582,-28.63256 c 1.29588,-1.18019 2.60218,-2.34696 3.91867,-3.50021 m 74.04718,-46.23863 c 30.109,-12.62619 62.52879,-19.85006 95.7879,-21.00156 39.65708,-1.37302 78.72082,5.94916 114.62413,21.00586 m 59.42475,34.30447 c 7.24506,5.50815 14.2402,11.40025 20.9537,17.66441 46.63478,43.51368 76.29978,101.82917 84.27743,164.5867 m -224.31715,60.84743 93.49424,204.33875 16.96734,-42.93332 M 512.21234,459.27276 642.41823,276.14871 l -52.16294,7.75024 44.81299,-39.26911 -14.32168,-60.52064 40.19309,37.42116 43.42701,-42.96503 -14.32168,60.05864 50.35685,15.70765 -59.59664,17.09361 -11.08774,56.36273 -18.74181,-46.6448 -93.44114,204.35718 m -91.08529,-0.0344 -93.49336,-204.33725 -12.53535,31.65059 m -15.9414,-36.073 -1.37253,-8.89535 -2.973,-0.48709 m -63.05529,-10.33081 -0.40663,-0.0666 0.48041,-0.16086 m 189.12368,281.41817 -223.73826,-21.20378 32.79351,41.29948 -56.41454,-19.17463 -45.25156,42.66325 12.31112,-53.51881 -58.92232,-16.12639 59.17315,-17.62639 -1.53066,-6.80539 m 327.09105,77.03592 -130.20575,183.1242 52.16316,-7.75015 -44.81298,39.26906 14.32167,60.52063 -40.19308,-37.42113 -43.42703,42.96505 14.32168,-60.05866 -50.35686,-15.70765 59.59666,-17.09361 11.08774,-56.36271 18.74221,46.57114 93.43981,-204.28254 m 91.26035,-52.6844 223.73739,21.20373 -32.79329,-41.29941 56.41448,19.17463 45.25156,-42.66326 -12.31112,53.51882 58.92234,16.12639 -59.17319,17.62638 1.54274,6.85908 M 286.11524,232.5227 l -1.20276,0.3334 m 0,0 -0.74388,0.2062 m 0,0 -2.22387,0.61645 m 0,0 -48.3602,13.40534 15.45894,6.9041 m 25.3372,11.31582 26.28294,11.7382 -38.37845,27.79202 37.37888,0.60895 c -1.11775,1.14907 -2.22887,2.30583 -3.3304,3.47377 m -56.75836,86.73033 c -3.21132,7.51994 -6.11001,15.16946 -8.6886,22.92849 m -27.85476,26.14855 -0.17926,1.73164 -42.11682,-30.52509 m -12.16763,7.51033 9.54871,36.90283 m 0.45201,21.71565 -124.83678,29.94069 129.70183,31.1075 -20.06625,77.54885 59.48493,-43.11302 4.87905,47.13269 19.21758,-32.06534 c 13.31769,47.0881 38.18072,90.45171 72.71047,125.94545 l -37.3746,0.60892 38.37845,27.79203 -67.07908,29.95815 77.19247,21.39754 -37.91077,127.87826 91.79106,-96.77075 57.12622,56.15233 -7.59414,-73.07219 43.25749,19.34177 -18.15916,-32.67107 c 26.86064,6.80194 54.77318,9.86181 82.96191,8.88587 21.24395,-0.73555 42.17275,-3.75061 62.46436,-8.8891 l -18.16128,32.6743 43.25858,-19.34177 -7.59525,73.07219 57.12733,-56.15233 91.78995,96.77075 -37.91077,-127.87826 0.83696,-0.232 m 23.73276,-6.57854 46.3526,-12.84865 m -27.37141,-16.76324 -33.43748,-14.93326 13.08722,-9.47695 m -8.55707,-18.86649 -3.53059,-0.0575 c 0.89594,-0.92108 1.78757,-1.84701 2.67344,-2.77969 m 69.77019,-122.20478 c 0.0916,-0.31981 0.18273,-0.63977 0.27325,-0.95991 l 0.45277,0.75553 m 22.29123,-2.77819 1.35046,-13.04576 21.51852,15.59602 m 34.9595,15.89562 -11.72115,-45.30043 m -0.42712,-21.80464 124.79078,-29.9299 -129.70078,-31.10751 20.06521,-77.54991 -59.48496,43.11301 -4.87904,-47.13269 -19.21651,32.06534 C 783.73368,384.30048 758.86959,340.937 724.33979,305.44321 l 37.37565,-0.60895 -38.37948,-27.79202 67.08015,-29.95812 -77.19358,-21.39758 37.91077,-127.87821 -91.78995,96.77071 -57.12733,-56.15234 7.59525,73.0722 -43.25858,-19.34173 18.15914,32.67 c -26.86025,-6.80177 -54.7736,-9.86074 -82.9619,-8.8848 -21.24418,0.73552 -42.17253,3.7505 -62.46437,8.88908 l 18.1613,-32.67428 -43.25749,19.34173 7.59414,-73.0722 -57.12622,56.15234 -91.79106,-96.77071 37.91077,127.87821 -0.95455,0.2646 m 139.80976,711.61942 c -50.37545,-7.38254 -98.56476,-23.5703 -142.55225,-47.40673 M 286.96198,878.54877 C 244.98389,852.77739 207.38092,819.76588 176.07656,780.61786 M 112.23529,670.70827 C 94.028347,624.84746 83.848426,576.19575 82.141092,526.88256 c -0.03792,-1.09552 -0.07166,-2.19078 -0.101205,-3.28578 m 1.53e-4,-23.21784 c 0.575921,-21.32979 2.735822,-42.49506 6.423431,-63.33098 m 5.583183,-26.61352 c 3.935696,-16.19448 8.807596,-32.13986 14.588056,-47.75517 m 15.3695,-36.31343 c 2.83928,-5.93469 5.81655,-11.80807 8.93012,-17.61516 m 22.0812,-36.67379 c 6.69702,-9.96415 13.82978,-19.67524 21.38817,-29.10364 m 23.86961,-27.32978 c 3.86232,-4.06285 7.79841,-8.04423 11.80552,-11.94259 m 19.82059,-18.11299 c 17.3041,-14.84883 35.72392,-28.26504 55.07073,-40.14192 m 20.10835,-11.60919 c 43.31412,-23.47161 90.69163,-39.520766 140.20295,-47.0564 m 127.08728,-0.35099 c 50.37486,7.382604 98.56362,23.57018 142.55066,47.40628 m 20.11817,11.61512 c 41.97822,25.77142 79.58132,58.783 110.88577,97.93115 m 63.84121,109.90946 c 18.20698,45.86084 28.38693,94.51259 30.09427,143.82583 0.0378,1.09588 0.0717,2.1915 0.10125,3.28686 m -2.1e-4,23.21784 c -0.57693,21.36605 -2.74328,42.56701 -6.44244,63.43721 m -5.53613,26.39096 c -4.07209,16.77584 -9.14873,33.28463 -15.19922,49.43635 M 846.66958,782.1784 c -1.20591,1.49375 -2.42256,2.98031 -3.6499,4.45959 -9.83085,11.8491 -20.24729,23.11063 -31.19316,33.75293 m -19.7788,18.06632 c -17.28885,14.83089 -35.69098,28.23192 -55.01821,40.09679 m -20.10764,11.60876 c -43.31442,23.47183 -90.69227,39.52112 -140.20394,47.05675 M 470.58386,964.42001 C 406.32024,958.53708 344.86443,939.13269 289.85364,908.29563 m -9.9831,-5.76375 C 226.2557,870.66421 179.16147,827.73878 142.10622,775.77619 M 99.483482,702.34028 c -25.316,-54.86625 -39.432587,-114.23149 -41.523393,-174.62052 -0.114849,-3.31717 -0.193265,-6.63202 -0.235445,-9.944 m -5.48e-4,-11.53124 c 0.41345,-32.71545 4.356515,-65.08754 11.640988,-96.58909 m 8.451366,-31.387 c 1.769317,-5.74413 3.652229,-11.45198 5.647523,-17.12014 m 9.774477,-25.32526 c 7.30082,-17.3544 15.68613,-34.26919 25.11863,-50.63991 m 12.77541,-20.85362 c 11.81521,-18.16913 24.97983,-35.56733 39.43802,-52.03817 1.78936,-2.03845 3.59538,-4.0591 5.41777,-6.0618 m 22.80675,-23.32371 c 24.75442,-23.56058 51.9658,-44.13484 81.06057,-61.42935 m 10.00793,-5.77797 c 54.61376,-30.611482 115.452,-49.879961 178.88126,-55.946637 m 84.67098,-0.172153 c 64.26356,5.882875 125.71931,25.287222 180.73007,56.12421 m 9.98367,5.76406 c 53.61456,31.86757 100.70857,74.79279 137.76373,126.7551 m 42.62357,73.4373 c 25.31576,54.86602 39.43219,114.23095 41.52297,174.61966 v 0 c 0.11485,3.31752 0.19326,6.63273 0.23545,9.94506 m 5.5e-4,11.53124 c -0.41277,32.65292 -4.34162,64.96378 -11.5995,96.40842 m -8.54254,31.72784 c -18.70889,60.65881 -50.08703,117.26598 -92.70436,165.81584 -1.80607,2.05747 -3.62907,4.09681 -5.46874,6.11784 m -22.86613,23.37265 c -24.72497,23.51676 -51.89871,44.05556 -80.95024,61.3244 m -10.00793,5.77795 c -54.61378,30.61152 -115.452,49.87997 -178.88124,55.94662 m -20.39415,-96.11629 c 22.67797,12.06679 31.28005,40.23301 19.21329,62.91098 -12.06678,22.67802 -40.233,31.28012 -62.911,19.21333 -22.67802,-12.06679 -31.28013,-40.23301 -19.21334,-62.91103 12.0668,-22.67802 40.23304,-31.28006 62.91105,-19.21328 v 0 m 10.72452,-20.1554 c 33.8095,17.98977 46.6339,59.9814 28.64416,93.79093 -17.98979,33.80953 -59.9814,46.63396 -93.79093,28.64418 -33.80952,-17.98977 -46.63396,-59.9814 -28.6442,-93.79093 17.98979,-33.80953 59.98144,-46.63395 93.79097,-28.64418 v 0 M 215.01136,709.86397 c 0.88885,25.67313 -19.20276,47.20584 -44.87588,48.09472 -25.67313,0.88887 -47.20588,-19.20276 -48.09474,-44.87589 -0.88885,-25.67313 19.20276,-47.20585 44.87588,-48.09472 25.67313,-0.88887 47.20588,19.20275 48.09474,44.87589 v 0 m 22.81736,-0.78997 c 1.32514,38.27477 -28.62846,70.37691 -66.90325,71.70205 -38.2748,1.32515 -70.37691,-28.6284 -71.702091,-66.90323 -1.325171,-38.27482 28.628441,-70.37696 66.903251,-71.7021 38.27482,-1.32515 70.37694,28.62846 71.70209,66.90328 v 0 M 489.13903,155.86826 c -22.678,-12.06679 -31.2801,-40.23301 -19.21332,-62.911018 12.06679,-22.678013 40.23302,-31.280101 62.91103,-19.213312 22.67801,12.066794 31.2801,40.23301 19.21331,62.91102 -12.06679,22.678 -40.23301,31.28009 -62.91102,19.21331 v 0 M 478.4145,176.02367 C 444.60497,158.03388 431.78052,116.04224 449.77031,82.232709 467.7601,48.423174 509.75174,35.59874 543.56128,53.588524 c 33.80953,17.989789 46.63397,59.981426 28.64418,93.790956 -17.98979,33.80953 -59.98143,46.63397 -93.79096,28.64419 v 0 m 330.57406,138.1123 c -0.88887,-25.67313 19.20276,-47.20587 44.87589,-48.09474 25.67313,-0.88885 47.20585,19.20277 48.09472,44.8759 0.88887,25.67313 -19.20275,47.20587 -44.87589,48.09473 -25.67313,0.88885 -47.20584,-19.20277 -48.09472,-44.87589 v 0 m -22.81742,0.78998 c -1.32514,-38.27481 28.62846,-70.37693 66.90329,-71.70208 38.27482,-1.32517 70.37696,28.62845 71.7021,66.90328 1.32515,38.27481 -28.62846,70.37692 -66.90328,71.70207 -38.27482,1.32517 -70.37696,-28.62845 -71.70211,-66.90327 v 0"
       inkscape:connector-curvature="0"
       sodipodi:nodetypes="ccccccccccccccccccccccccccccccccccccccccccccccccccccccccccccccccccccccccccccccccccccccccccccccccccccccccccccccccccccccccccccccccccccccccccccccccccccccccccccccccccccccccccccccccccccccscccccccccccsccccccccccccccccccccccccccccccccccccccccccccccccccccccccccccccccccccccccccccccccccccccccccccccccccccccccccccccccccccccccccccccccccccccccccccccsccccccccccccccccccccccccccccccccccccccccccccccccccccsccccccccscccccccccccccccccccccccsssccccsscccssscccssscccssscccssscccssscccssscc" />
  </g>
  <g
     inkscape:groupmode="layer"
     id="layer20"
     inkscape:label="moon"
     style="display:inline">
    <path
       id="path4931-18-5"
       style="color:#000000;clip-rule:nonzero;display:inline;overflow:visible;visibility:visible;opacity:1;isolation:auto;mix-blend-mode:normal;color-interpolation:sRGB;color-interpolation-filters:linearRGB;solid-color:#000000;solid-opacity:1;fill:none;fill-opacity:0.44444448;fill-rule:evenodd;stroke:#000000;stroke-width:3;stroke-linecap:round;stroke-linejoin:round;stroke-miterlimit:4;stroke-dasharray:none;stroke-dashoffset:0;stroke-opacity:1;marker:none;color-rendering:auto;image-rendering:auto;shape-rendering:auto;text-rendering:auto;enable-background:accumulate"
       d="m 860.56304,628.95826 a 28.019273,28.019273 0 0 1 -27.03297,28.972 28.019273,28.019273 0 0 1 -28.97199,-27.03298 28.019273,28.019273 0 0 1 27.03297,-28.972 28.019273,28.019273 0 0 1 28.97199,27.03298 z m 26.89427,30.2986 a 60.665358,60.665358 0 0 1 -58.5299,62.72815 60.665358,60.665358 0 0 1 -62.72815,-58.52992 60.665358,60.665358 0 0 1 58.52993,-62.72814 60.665358,60.665358 0 0 1 62.72812,58.52991 z m 30.70475,25.50019 a 97.644324,97.644324 0 0 1 -94.20723,100.9645 97.644324,97.644324 0 0 1 -100.96449,-94.20722 97.644324,97.644324 0 0 1 94.20721,-100.96448 97.644324,97.644324 0 0 1 100.96451,94.2072 z m 34.82471,-1.20571 A 132.48989,132.48989 0 0 1 825.16054,820.54626 132.48989,132.48989 0 0 1 688.16564,692.72004 132.48989,132.48989 0 0 1 815.99185,555.72515 132.48989,132.48989 0 0 1 952.98677,683.55134 Z m 20.61051,-0.71358 A 153.11278,153.11278 0 0 1 825.87412,841.15677 153.11278,153.11278 0 0 1 667.55511,693.43362 153.11278,153.11278 0 0 1 815.27826,535.11459 153.11278,153.11278 0 0 1 973.59728,682.83776 Z"
       inkscape:connector-curvature="0" />
  </g>
  <g
     inkscape:groupmode="layer"
     id="layer18"
     inkscape:label="sun"
     style="display:inline">
    <path
       id="path4931-1-6-8-2"
       style="color:#000000;clip-rule:nonzero;display:inline;overflow:visible;visibility:visible;opacity:1;isolation:auto;mix-blend-mode:normal;color-interpolation:sRGB;color-interpolation-filters:linearRGB;solid-color:#000000;solid-opacity:1;fill:none;fill-opacity:0.44444448;fill-rule:evenodd;stroke:#000000;stroke-width:3;stroke-linecap:round;stroke-linejoin:round;stroke-miterlimit:4;stroke-dasharray:none;stroke-dashoffset:0;stroke-opacity:1;marker:none;color-rendering:auto;image-rendering:auto;shape-rendering:auto;text-rendering:auto;enable-background:accumulate"
       d="m 139.69428,345.77014 a 64.494703,64.494703 0 0 1 53.82341,-73.63542 64.494703,64.494703 0 0 1 73.63542,53.8234 64.494703,64.494703 0 0 1 -53.82341,73.63542 64.494703,64.494703 0 0 1 -73.63542,-53.8234 z M 72.505929,356.21382 A 132.48989,132.48989 0 0 1 183.07403,204.94638 132.48989,132.48989 0 0 1 334.34146,315.51448 132.48989,132.48989 0 0 1 223.77337,466.78192 132.48989,132.48989 0 0 1 72.505929,356.21382 Z m -20.378183,3.16756 A 153.11278,153.11278 0 0 1 179.90647,184.56821 153.11278,153.11278 0 0 1 354.71965,312.34693 153.11278,153.11278 0 0 1 226.94092,487.1601 153.11278,153.11278 0 0 1 52.127746,359.38138 Z m 47.025885,-105.41554 0.160679,0.12621 m 0,0 53.42988,41.96616 m 101.35905,79.61186 53.42986,41.96616 m 0,0 0.16068,0.12621 m -22.3718,-186.16838 -0.12621,0.16069 m 0,0 -41.96605,53.42971 m -79.6121,101.35936 -41.96605,53.42971 m 0,0 -0.1262,0.16069 m -95.493198,-82.95304 25.543845,-3.06959 m 20.453125,-2.45784 67.431918,-8.10327 m 127.92426,-15.3726 67.43297,-8.10339 m 20.45207,-2.45771 25.5449,-3.06972 m -198.70864,-156.07445 3.06972,25.5449 m 2.45772,20.45207 8.10339,67.43297 m 15.3726,127.92428 8.10326,67.4319 m 2.45785,20.45313 3.06959,25.54383 M 99.266809,254.14919 140.68291,321.24298 71.127481,342.70261 m -20.095993,6.20013 -24.806556,7.65345 0.142564,1.1865 25.750721,1.54865 m 21.223056,1.27635 72.591867,4.3657 -24.33977,74.99127 m 0,0 -0.068,0.20952 h 4e-5 l 0.18254,-0.11268 m 0,0 67.09461,-41.41661 21.45964,69.55543 m 6.20013,20.09599 7.65346,24.80655 1.18646,-0.14255 1.54865,-25.75072 m 1.27636,-21.22306 4.36569,-72.59187 74.99218,24.34007 m 0,0 0.2086,0.0677 3e-5,-4e-5 -0.11268,-0.18254 m 0,0 -41.4166,-67.09462 69.55543,-21.45963 m 20.09599,-6.20013 24.80655,-7.65346 -0.14261,-1.18645 -25.75072,-1.54864 m -21.22305,-1.27637 -72.59188,-4.36569 24.33977,-74.99126 m 0,0 0.068,-0.20952 -10e-6,-2e-5 -0.18376,0.11343 m 0,0 -67.0934,41.41585 -21.45963,-69.55543 m -6.20013,-20.09599 -7.65345,-24.80655 -1.18649,0.14261 -1.54866,25.75073 m -1.27635,21.22304 -4.36569,72.59187 -74.991274,-24.33976 m 0,0 -0.209517,-0.068 -5e-6,-2e-5 v 0 l 0.113188,0.18337"
       inkscape:connector-curvature="0" />
  </g>
</svg>
